<svg width="37" height="35" viewBox="0 0 37 35" fill="none" xmlns="http://www.w3.org/2000/svg">
<g clip-path="url(#clip0_2383_625)">
<path d="M35.6658 0.0683594H1.64658C1.0619 0.0683594 0.587891 0.527461 0.587891 1.09375V15.4492C0.587891 16.0155 1.0619 16.4746 1.64658 16.4746H35.6658C36.2505 16.4746 36.7245 16.0155 36.7245 15.4492V1.09375C36.7245 0.527461 36.2505 0.0683594 35.6658 0.0683594Z" fill="#FFDA2D"/>
<path d="M36.7246 1.09375V15.4492C36.7246 16.0152 36.2503 16.4746 35.6659 16.4746H18.6562V0.0683594H35.6659C36.2503 0.0683594 36.7246 0.527734 36.7246 1.09375Z" fill="#FDBF00"/>
<path d="M12.2335 18.5254H1.64658C1.0619 18.5254 0.587891 18.9845 0.587891 19.5508V33.9062C0.587891 34.4725 1.0619 34.9316 1.64658 34.9316H12.2335C12.8182 34.9316 13.2922 34.4725 13.2922 33.9062V19.5508C13.2922 18.9845 12.8182 18.5254 12.2335 18.5254Z" fill="#E6E6E6"/>
<path d="M35.6655 18.5254H16.4679C15.8832 18.5254 15.4092 18.9845 15.4092 19.5508V33.9062C15.4092 34.4725 15.8832 34.9316 16.4679 34.9316H35.6655C36.2501 34.9316 36.7242 34.4725 36.7242 33.9062V19.5508C36.7242 18.9845 36.2501 18.5254 35.6655 18.5254Z" fill="#F6F9FC"/>
<path d="M36.7246 19.5508V33.9062C36.7246 34.4723 36.2503 34.9316 35.6659 34.9316H18.6562V18.5254H35.6659C36.2503 18.5254 36.7246 18.9848 36.7246 19.5508Z" fill="#F6F9FC"/>
<path d="M30.5074 21.561L32.0173 20.3359C32.6039 19.8599 32.4902 18.9545 31.8026 18.6287L20.2831 13.1721C19.4735 12.7886 18.5684 13.5022 18.7925 14.3481L22.0218 26.5363C22.2152 27.2661 23.1305 27.5514 23.7271 27.0674L25.2336 25.8451L26.8383 27.7082C27.2128 28.143 27.8822 28.2023 28.3318 27.8369L31.9826 24.8698C32.4296 24.5065 32.4888 23.8614 32.115 23.4275L30.5074 21.561Z" fill="#FF641A"/>
<path d="M32.1153 23.4275C32.4887 23.8615 32.4294 24.5068 31.9826 24.8698L30.4518 26.114L19.1689 13.2857C19.4668 13.0594 19.886 12.9842 20.2827 13.1722L31.8027 18.6286C32.4901 18.9547 32.6037 19.8598 32.0172 20.3362L30.5075 21.5612L32.1153 23.4275Z" fill="#F03800"/>
<path d="M7.99834 4.16992C6.24705 4.16992 4.82227 5.54989 4.82227 7.24609V11.3477C4.82227 11.9139 5.29628 12.373 5.88096 12.373C6.46564 12.373 6.93965 11.9139 6.93965 11.3477V10.3223H9.05703V11.3477C9.05703 11.9139 9.53104 12.373 10.1157 12.373C10.7004 12.373 11.1744 11.9139 11.1744 11.3477V7.24609C11.1744 5.54989 9.74962 4.16992 7.99834 4.16992ZM6.93965 8.27148V7.24609C6.93965 6.68069 7.41458 6.2207 7.99834 6.2207C8.5821 6.2207 9.05703 6.68069 9.05703 7.24609V8.27148H6.93965Z" fill="#FE9022"/>
<path d="M15.4094 4.16992H14.3507C13.766 4.16992 13.292 4.62902 13.292 5.19531V11.3477C13.292 11.9139 13.766 12.373 14.3507 12.373H15.4094C17.7444 12.373 19.6441 10.5331 19.6441 8.27148C19.6441 6.00988 17.7444 4.16992 15.4094 4.16992ZM15.4094 10.3223V6.2207C16.5769 6.2207 17.5268 7.14068 17.5268 8.27148C17.5268 9.40229 16.5769 10.3223 15.4094 10.3223Z" fill="#FE9022"/>
<path d="M18.6562 5.6416V10.9012C19.2731 10.1889 19.6444 9.27148 19.6444 8.27139C19.6444 7.27129 19.2731 6.35391 18.6562 5.6416Z" fill="#FF641A"/>
<path d="M22.8204 6.9043H31.2899C31.8746 6.9043 32.3486 6.4452 32.3486 5.87891C32.3486 5.31262 31.8746 4.85352 31.2899 4.85352H22.8204C22.2357 4.85352 21.7617 5.31262 21.7617 5.87891C21.7617 6.4452 22.2357 6.9043 22.8204 6.9043Z" fill="#FF641A"/>
<path d="M31.2899 8.95508H22.8204C22.2357 8.95508 21.7617 9.41418 21.7617 9.98047C21.7617 10.5468 22.2357 11.0059 22.8204 11.0059H31.2899C31.8746 11.0059 32.3486 10.5468 32.3486 9.98047C32.3486 9.41418 31.8746 8.95508 31.2899 8.95508Z" fill="#FF641A"/>
</g>
<defs>
<clipPath id="clip0_2383_625">
<rect width="36.1366" height="35" fill="white" transform="translate(0.587891)"/>
</clipPath>
</defs>
</svg>
