<svg width="42" height="40" viewBox="0 0 42 40" fill="none" xmlns="http://www.w3.org/2000/svg">
<g clip-path="url(#clip0_2383_642)">
<path d="M37.5223 10.3849L27.1545 0.343202C26.9276 0.123437 26.6199 0 26.299 0H8.8034C6.34974 0 4.35352 1.93343 4.35352 4.30991V35.69C4.35352 38.0665 6.34966 39.9999 8.80331 39.9999H33.4268C35.8804 39.9999 37.8766 38.0665 37.8766 35.69V11.2135C37.8766 10.9027 37.7491 10.6046 37.5223 10.3849Z" fill="#E7F0EF"/>
<path d="M37.5224 10.3849L27.1546 0.343202C26.9277 0.123437 26.6199 0 26.2991 0H21.1152V39.9999H33.4268C35.8805 39.9999 37.8767 38.0665 37.8767 35.69V11.2135C37.8767 10.9027 37.7492 10.6046 37.5224 10.3849Z" fill="#C5E1E6"/>
<path d="M37.5222 10.385L27.1544 0.343303C26.8084 0.00814643 26.288 -0.0921661 25.8358 0.0892402C25.3837 0.270646 25.0889 0.69799 25.0889 1.1719V8.07557C25.0889 10.4521 27.085 12.3854 29.5387 12.3854H36.6666C37.156 12.3854 37.5971 12.0999 37.7844 11.662C37.9717 11.2242 37.8683 10.7202 37.5222 10.385Z" fill="#8DB9C4"/>
<path d="M31.4835 34.9792H10.748C10.0798 34.9792 9.53809 34.4546 9.53809 33.8074C9.53809 33.1602 10.0798 32.6355 10.748 32.6355H31.4835C32.1517 32.6355 32.6934 33.1602 32.6934 33.8074C32.6934 34.4546 32.1518 34.9792 31.4835 34.9792Z" fill="#3D5959"/>
<path d="M31.4835 29.9585H10.748C10.0798 29.9585 9.53809 29.4338 9.53809 28.7866C9.53809 28.1394 10.0798 27.6147 10.748 27.6147H31.4835C32.1517 27.6147 32.6934 28.1394 32.6934 28.7866C32.6934 29.4338 32.1518 29.9585 31.4835 29.9585Z" fill="#3D5959"/>
<path d="M31.4835 24.9375H10.748C10.0798 24.9375 9.53809 24.4128 9.53809 23.7656C9.53809 23.1184 10.0798 22.5938 10.748 22.5938H31.4835C32.1517 22.5938 32.6934 23.1184 32.6934 23.7656C32.6934 24.4128 32.1518 24.9375 31.4835 24.9375Z" fill="#3D5959"/>
<path d="M26.2997 19.9167H10.748C10.0798 19.9167 9.53809 19.3921 9.53809 18.7449C9.53809 18.0977 10.0798 17.573 10.748 17.573H26.2997C26.9679 17.573 27.5096 18.0977 27.5096 18.7449C27.5096 19.3921 26.9679 19.9167 26.2997 19.9167Z" fill="#3D5959"/>
<path d="M18.5238 5.02075H10.748C10.0798 5.02075 9.53809 5.54544 9.53809 6.19263V13.7238C9.53809 14.371 10.0798 14.8957 10.748 14.8957H18.5238C19.192 14.8957 19.7337 14.371 19.7337 13.7238V6.19263C19.7337 5.54544 19.1921 5.02075 18.5238 5.02075Z" fill="#FFCB57"/>
<path d="M31.4829 34.979C32.1511 34.979 32.6928 34.4543 32.6928 33.8071C32.6928 33.1599 32.1511 32.6353 31.4829 32.6353H21.1152V34.979H31.4829Z" fill="#293939"/>
<path d="M32.6928 28.7866C32.6928 28.1394 32.1511 27.6147 31.4829 27.6147H21.1152V29.9585H31.4829C32.1512 29.9585 32.6928 29.4338 32.6928 28.7866Z" fill="#293939"/>
<path d="M32.6928 23.7656C32.6928 23.1184 32.1511 22.5938 31.4829 22.5938H21.1152V24.9375H31.4829C32.1512 24.9375 32.6928 24.4128 32.6928 23.7656Z" fill="#293939"/>
<path d="M27.509 18.7449C27.509 18.0977 26.9673 17.573 26.2991 17.573H21.1152V19.9167H26.2991C26.9673 19.9167 27.509 19.3921 27.509 18.7449Z" fill="#293939"/>
</g>
<defs>
<clipPath id="clip0_2383_642">
<rect width="41.299" height="40" fill="white" transform="translate(0.46582)"/>
</clipPath>
</defs>
</svg>
