<svg width="42" height="40" viewBox="0 0 42 40" fill="none" xmlns="http://www.w3.org/2000/svg">
<g clip-path="url(#clip0_2383_586)">
<path d="M18.2371 32.5276C20.6548 32.5276 22.6148 30.6293 22.6148 28.2876C22.6148 25.9459 20.6548 24.0476 18.2371 24.0476C15.8193 24.0476 13.8594 25.9459 13.8594 28.2876C13.8594 30.6293 15.8193 32.5276 18.2371 32.5276Z" fill="#404049"/>
<path d="M21.2145 38.3131L19.4674 38.929C18.7872 39.1688 18.0251 38.952 17.5868 38.3942L8.43555 26.7472L16.1198 24.0383L22.1377 36.1129C22.5631 36.9664 22.134 37.989 21.2145 38.3131Z" fill="#DEDEEA"/>
<path opacity="0.1" d="M19.2957 30.4158C16.7228 30.9011 15.1385 32.9077 14.5698 34.5602L12.5115 31.9372L8.43555 26.7435L16.1135 24.0417L19.2145 30.2453L19.2957 30.4158Z" fill="black"/>
<path d="M24.1563 3.62402C20.0133 8.66855 13.8441 12.7013 8.66602 15.0214L11.4058 22.312L14.1455 29.6026C19.6519 28.1561 27.0541 27.4046 33.5757 28.6897C32.3986 23.6846 31.2866 19.789 29.7982 15.8282C28.3097 11.8675 26.5763 8.19092 24.1563 3.62402Z" fill="#F0F0FC"/>
<path d="M11.4223 30.5625L14.1458 29.6025L8.66631 15.0212L5.94282 15.9813C1.78557 17.4469 -0.357926 21.899 1.15519 25.9255C2.66831 29.952 7.26505 32.0281 11.4223 30.5625Z" fill="#A960EE"/>
<path opacity="0.1" d="M33.5856 28.6857C27.059 27.4004 19.6522 28.161 14.1547 29.6037L11.433 30.5611C10.5258 30.8758 9.60501 31.0332 8.68425 31.0332C5.42098 31.0332 2.34722 29.0791 1.15563 25.9315C0.153635 23.2299 0.776457 20.3447 2.56383 18.2856C4.50014 21.8266 8.14259 23.925 12.3538 24.8168C18.7044 26.1676 26.3819 24.7381 31.6086 21.2233C32.2992 23.5053 32.9356 25.9315 33.5856 28.6857Z" fill="black"/>
<path d="M36.1884 29.8703C35.1285 30.244 33.9566 29.7147 33.5708 28.6882L24.154 3.62937C23.7682 2.60285 24.3147 1.46781 25.3746 1.09419C26.4344 0.720565 27.6063 1.24985 27.9921 2.27637L37.4089 27.3352C37.7947 28.3617 37.2482 29.4967 36.1884 29.8703Z" fill="#A960EE"/>
<path d="M34.9889 9.34853C34.854 9.34853 34.7191 9.3101 34.6014 9.2307C34.2946 9.02322 34.2193 8.61466 34.4335 8.31753L36.0824 6.0282C36.298 5.73107 36.7224 5.66063 37.0253 5.86555C37.332 6.07303 37.4074 6.48158 37.1932 6.77872L35.5443 9.06804C35.412 9.25055 35.2018 9.34853 34.9889 9.34853ZM41.9457 18.9624C42.0435 18.6128 41.8293 18.2529 41.4683 18.1581L38.6861 17.4306C38.3317 17.3391 37.9535 17.5433 37.857 17.893C37.7592 18.2426 37.9734 18.6025 38.3344 18.6973L41.1166 19.4248C41.1747 19.4401 41.2342 19.4472 41.2924 19.4472C41.5913 19.4472 41.865 19.2551 41.9457 18.9624ZM36.9816 13.9944L39.703 13.0351C40.0547 12.9115 40.2359 12.535 40.1076 12.195C39.9794 11.8549 39.5919 11.6788 39.2402 11.8031L36.5188 12.7623C36.1671 12.8859 35.9859 13.2625 36.1142 13.6025C36.2147 13.8689 36.4739 14.0341 36.7502 14.0341C36.8269 14.0341 36.9049 14.0213 36.9816 13.9944Z" fill="#404049"/>
</g>
<defs>
<clipPath id="clip0_2383_586">
<rect width="41.299" height="40" fill="white" transform="translate(0.669922)"/>
</clipPath>
</defs>
</svg>
