<svg width="43" height="40" viewBox="0 0 43 40" fill="none" xmlns="http://www.w3.org/2000/svg">
<g clip-path="url(#clip0_2383_549)">
<path d="M21.4783 37.6241L22.1651 36.1517C22.349 35.7574 22.3361 35.3018 22.124 34.9211C21.3702 33.5681 20.9397 32.0213 20.9337 30.3774C20.9139 25.0553 25.4005 20.6892 30.8955 20.6841C36.4103 20.679 40.8819 25.0099 40.8768 30.3512C40.8717 35.6735 36.3638 40.0189 30.8688 39.9999C29.1715 39.994 27.5744 39.5771 26.1775 38.8469C25.7844 38.6414 25.3139 38.6289 24.9069 38.8071L23.3868 39.4723C22.8399 39.7116 22.1972 39.598 21.7729 39.1871C21.3485 38.7762 21.2312 38.1538 21.4783 37.6241Z" fill="#FFEE6E"/>
<path d="M28.4122 30.3512C28.4084 26.2942 30.9876 22.8207 34.6445 21.3868C33.4869 20.9329 32.2215 20.6828 30.8955 20.6841C25.4005 20.6892 20.9139 25.0553 20.9337 30.3774C20.9398 32.0213 21.3702 33.5681 22.1241 34.9211C22.3362 35.3019 22.349 35.7575 22.1652 36.1517L21.4784 37.6241C21.2313 38.1537 21.3486 38.7762 21.7729 39.1871C22.1972 39.5981 22.8399 39.7117 23.3867 39.4724L24.9068 38.8071C25.3139 38.629 25.7844 38.6415 26.1774 38.847C27.5743 39.5771 29.1714 39.994 30.8687 39.9999C32.2023 40.0046 33.4774 39.7515 34.6445 39.2903C31.0027 37.8515 28.4161 34.3817 28.4122 30.3512Z" fill="#FFDA45"/>
<path d="M35.2671 31.8511V28.1287C35.2671 25.7951 33.314 23.9033 30.9046 23.9033C28.4952 23.9033 26.5421 25.795 26.5421 28.1287V31.8511C25.7389 31.8511 25.0879 32.4817 25.0879 33.2595C25.0879 34.0374 25.7389 34.6679 26.5421 34.6679H28.7233C28.7233 35.8347 29.6999 36.7806 30.9046 36.7806C32.1093 36.7806 33.0859 35.8347 33.0859 34.6679H35.2671C36.0703 34.6679 36.7213 34.0373 36.7213 33.2595C36.7213 32.4817 36.0703 31.8511 35.2671 31.8511Z" fill="#F5FAFC"/>
<path d="M29.4505 33.2595C29.4505 32.4816 30.1015 31.8511 30.9047 31.8511V28.1287C30.9047 26.565 31.7824 25.2007 33.0859 24.47C32.4441 24.1103 31.6995 23.9033 30.9047 23.9033C28.4953 23.9033 26.5421 25.795 26.5421 28.1287V31.8511C25.7389 31.8511 25.0879 32.4816 25.0879 33.2595C25.0879 34.0374 25.7389 34.6679 26.5421 34.6679H28.7233C28.7233 35.8347 29.6999 36.7806 30.9046 36.7806C32.1093 36.7806 33.0859 35.8347 33.0859 34.6679H30.9046C30.1016 34.6679 29.4505 34.0374 29.4505 33.2595Z" fill="#E1F1FA"/>
<path d="M23.4558 28.4958L22.6545 26.7781C22.4399 26.3181 22.4549 25.7865 22.7024 25.3423C23.5818 23.7638 24.084 21.9591 24.0911 20.0413C24.1141 13.8321 18.8799 8.73829 12.4689 8.73243C6.03516 8.72657 0.818255 13.7793 0.824224 20.0108C0.830193 26.2201 6.08937 31.2899 12.5002 31.2676C14.4804 31.2607 16.3437 30.7743 17.9734 29.9225C18.432 29.6828 18.9809 29.6682 19.4558 29.8761L21.2293 30.6522C21.8673 30.9313 22.6171 30.7988 23.1121 30.3194C23.6072 29.8399 23.744 29.1137 23.4558 28.4958Z" fill="#FF808C"/>
<path d="M7.47199 20.0108C7.46707 14.9048 10.969 10.5911 15.7735 9.20227C14.7251 8.89821 13.6161 8.73352 12.4691 8.73243C6.03516 8.72657 0.818255 13.7793 0.824224 20.0108C0.830193 26.2201 6.08937 31.2899 12.5003 31.2676C13.6433 31.2636 14.7468 31.0991 15.7895 30.7975C10.9982 29.4073 7.47683 25.0908 7.47199 20.0108Z" fill="#FF6E7C"/>
<path d="M17.1316 15.2332C14.549 14.1215 12.4583 16.3846 12.4583 16.3846C12.4583 16.3846 10.3676 14.1215 7.78497 15.2332C5.20233 16.345 5.20233 20.0375 7.49806 22.4992C9.0867 24.2027 10.852 25.2407 11.7886 25.7185C12.2082 25.9325 12.7084 25.9325 13.128 25.7185C14.0647 25.2407 15.83 24.2026 17.4185 22.4992C19.7143 20.0375 19.7143 16.345 17.1316 15.2332Z" fill="#F5FAFC"/>
<path d="M11.6733 20.4023C11.6733 18.9838 11.9518 17.6283 12.4585 16.3843C12.4585 16.3843 10.3676 14.1213 7.78499 15.233C5.20234 16.3447 5.20235 20.0372 7.49799 22.4989C9.08663 24.2025 10.8519 25.2404 11.7886 25.7182C12.1991 25.9276 12.6867 25.9316 13.1005 25.7312C12.1919 24.1539 11.6733 22.3369 11.6733 20.4023Z" fill="#E1F1FA"/>
<path d="M16.2595 22.5866L17.1752 20.6235C17.4205 20.0978 17.4033 19.4903 17.1205 18.9827C16.1154 17.1787 15.5414 15.1163 15.5333 12.9245C15.507 5.82821 21.4891 0.00672461 28.8158 5.85708e-06C36.1688 -0.00671289 42.131 5.76782 42.1241 12.8895C42.1173 19.9859 36.1068 25.7799 28.7801 25.7545C26.5171 25.7466 24.3876 25.1907 22.525 24.2172C22.0009 23.9433 21.3736 23.9266 20.8309 24.1641L18.804 25.0511C18.0749 25.3702 17.218 25.2187 16.6522 24.6707C16.0865 24.1228 15.9301 23.2928 16.2595 22.5866Z" fill="#69A8FF"/>
<path d="M23.012 12.8895C23.0063 7.02985 27.0419 2.08305 32.568 0.517271C31.3778 0.180006 30.1188 -0.00116623 28.8158 5.64937e-06C21.4891 0.0067244 15.507 5.82821 15.5333 12.9245C15.5414 15.1163 16.1153 17.1787 17.1205 18.9827C17.4033 19.4903 17.4205 20.0978 17.1752 20.6235L16.2595 22.5866C15.9301 23.2928 16.0865 24.1227 16.6522 24.6707C17.2179 25.2187 18.0748 25.3701 18.8039 25.051L20.8308 24.1641C21.3736 23.9266 22.0008 23.9432 22.5249 24.2171C24.3875 25.1906 26.517 25.7465 28.78 25.7544C30.0942 25.7589 31.3656 25.5754 32.5679 25.2316C27.0667 23.6586 23.0175 18.7131 23.012 12.8895Z" fill="#549CFF"/>
<path d="M37.6235 11.56C37.6235 10.0599 36.3679 8.84368 34.8189 8.84368H32.0524L33.5859 6.70063C33.9457 6.19782 33.9251 5.51126 33.5011 5.05782C32.9968 4.51852 32.1484 4.48571 31.6024 4.96298C31.6024 4.96298 28.2816 7.86532 26.619 9.31852C26.0296 9.8336 25.6934 10.5663 25.6934 11.3351V16.3983C25.6934 17.8984 26.9489 19.1146 28.4979 19.1146H34.8191C36.3679 19.1146 37.6236 17.8985 37.6236 16.3983V11.56H37.6235Z" fill="#F5FAFC"/>
<path d="M32.0524 8.84385L33.5859 6.7008C33.9457 6.19799 33.9251 5.51142 33.5011 5.05807C32.9968 4.51877 32.1484 4.48596 31.6024 4.96322C31.6024 4.96322 28.2816 7.86557 26.619 9.31877C26.0296 9.83385 25.6934 10.5666 25.6934 11.3353V16.3985C25.6934 17.8987 26.9489 19.1149 28.4979 19.1149H32.0524C30.5036 19.1148 29.2481 17.8987 29.2481 16.3985V11.5602C29.2479 10.0599 30.5036 8.84385 32.0524 8.84385Z" fill="#E1F1FA"/>
<path d="M22.6815 19.1147H24.9667C25.8845 19.1147 26.6286 18.394 26.6286 17.5051V9.8592C26.6286 8.97021 25.8845 8.24951 24.9667 8.24951H22.6815C21.7636 8.24951 21.0195 8.97021 21.0195 9.8592V17.5051C21.0195 18.394 21.7636 19.1147 22.6815 19.1147Z" fill="#F5FAFC"/>
</g>
<defs>
<clipPath id="clip0_2383_549">
<rect width="41.299" height="40" fill="white" transform="translate(0.824219)"/>
</clipPath>
</defs>
</svg>
