<svg width="42" height="40" viewBox="0 0 42 40" fill="none" xmlns="http://www.w3.org/2000/svg">
<g clip-path="url(#clip0_2383_602)">
<path d="M41.8791 11.112V35.2186C41.8791 37.0045 40.3844 38.4522 38.5405 38.4522H3.91868C2.07475 38.4522 0.580078 37.0045 0.580078 35.2186V11.112L1.79001 10.4651H40.6692L41.8791 11.112Z" fill="#F0F7FF"/>
<path d="M41.879 11.112V35.2186C41.879 37.0045 40.3843 38.4522 38.5404 38.4522H21.2295V10.4651H40.6691L41.879 11.112Z" fill="#DFE7F4"/>
<path d="M0.580078 11.112V35.2186C0.580078 37.0045 2.07475 38.4522 3.91868 38.4522H11.4695V10.4651H1.79001L0.580078 11.112Z" fill="#E6E6E6"/>
<path d="M6.02439 20.4602C6.69261 20.4602 7.23432 19.9355 7.23432 19.2883C7.23432 18.6411 6.69261 18.1165 6.02439 18.1165C5.35616 18.1165 4.81445 18.6411 4.81445 19.2883C4.81445 19.9355 5.35616 20.4602 6.02439 20.4602Z" fill="#4793FF"/>
<path d="M6.02439 25.1477C6.69261 25.1477 7.23432 24.623 7.23432 23.9758C7.23432 23.3286 6.69261 22.804 6.02439 22.804C5.35616 22.804 4.81445 23.3286 4.81445 23.9758C4.81445 24.623 5.35616 25.1477 6.02439 25.1477Z" fill="#4793FF"/>
<path d="M6.02439 29.8352C6.69261 29.8352 7.23432 29.3105 7.23432 28.6633C7.23432 28.0161 6.69261 27.4915 6.02439 27.4915C5.35616 27.4915 4.81445 28.0161 4.81445 28.6633C4.81445 29.3105 5.35616 29.8352 6.02439 29.8352Z" fill="#4793FF"/>
<path d="M41.8791 4.78145V11.1119H0.580078V4.78145C0.580078 2.99863 2.07797 1.54785 3.91868 1.54785H38.5405C40.3812 1.54785 41.8791 2.99863 41.8791 4.78145Z" fill="#153657"/>
<path d="M41.879 4.78145V11.1119H21.2295V1.54785H38.5404C40.3811 1.54785 41.879 2.99863 41.879 4.78145Z" fill="#0A2540"/>
<path d="M5.83103 7.50171C6.49925 7.50171 7.04096 6.97704 7.04096 6.32983C7.04096 5.68263 6.49925 5.15796 5.83103 5.15796C5.1628 5.15796 4.62109 5.68263 4.62109 6.32983C4.62109 6.97704 5.1628 7.50171 5.83103 7.50171Z" fill="#FFE14D"/>
<path d="M10.6709 7.50171C11.3391 7.50171 11.8808 6.97704 11.8808 6.32983C11.8808 5.68263 11.3391 5.15796 10.6709 5.15796C10.0026 5.15796 9.46094 5.68263 9.46094 6.32983C9.46094 6.97704 10.0026 7.50171 10.6709 7.50171Z" fill="#BDE239"/>
<path d="M36.6357 7.50171C37.3039 7.50171 37.8456 6.97704 37.8456 6.32983C37.8456 5.68263 37.3039 5.15796 36.6357 5.15796C35.9675 5.15796 35.4258 5.68263 35.4258 6.32983C35.4258 6.97704 35.9675 7.50171 36.6357 7.50171Z" fill="#CB75F6"/>
<path d="M24.8592 27.9392V32.6267C24.8592 33.2744 24.318 33.7986 23.6493 33.7986H18.8095C18.1417 33.7986 17.5996 33.2744 17.5996 32.6267V27.9392C17.5996 27.2923 18.1417 26.7673 18.8095 26.7673H23.6493C24.318 26.7673 24.8592 27.2923 24.8592 27.9392Z" fill="#4793FF"/>
<path d="M24.8592 18.429V23.1165C24.8592 23.7633 24.318 24.2883 23.6493 24.2883H18.8095C18.1417 24.2883 17.5996 23.7633 17.5996 23.1165V18.429C17.5996 17.7813 18.1417 17.2571 18.8095 17.2571H23.6493C24.318 17.2571 24.8592 17.7813 24.8592 18.429Z" fill="#4793FF"/>
<path d="M36.5365 19.9375C36.5365 20.2477 36.4091 20.5461 36.1824 20.7657L32.7599 24.0805C32.5244 24.3094 32.2146 24.4235 31.9049 24.4235C31.5951 24.4235 31.2854 24.3094 31.0491 24.0805L27.6266 20.7657C27.3999 20.5461 27.2725 20.2477 27.2725 19.9375C27.2725 19.6266 27.3999 19.3282 27.6266 19.1086L31.0491 15.7938C31.5217 15.336 32.288 15.336 32.7599 15.7938L36.1824 19.1086C36.4091 19.3282 36.5365 19.6266 36.5365 19.9375Z" fill="#FFCB57"/>
<path d="M34.5321 27.9392V32.6267C34.5321 33.2744 33.9908 33.7986 33.3221 33.7986H28.4824C27.8145 33.7986 27.2725 33.2744 27.2725 32.6267V27.9392C27.2725 27.2923 27.8145 26.7673 28.4824 26.7673H33.3221C33.9908 26.7673 34.5321 27.2923 34.5321 27.9392Z" fill="#525CDD"/>
<path d="M24.8593 18.429V23.1165C24.8593 23.7633 24.318 24.2883 23.6494 24.2883H21.2295V17.2571H23.6494C24.318 17.2571 24.8593 17.7813 24.8593 18.429Z" fill="#525CDD"/>
<path d="M24.8593 27.9392V32.6267C24.8593 33.2744 24.318 33.7986 23.6494 33.7986H21.2295V26.7673H23.6494C24.318 26.7673 24.8593 27.2923 24.8593 27.9392Z" fill="#525CDD"/>
</g>
<defs>
<clipPath id="clip0_2383_602">
<rect width="41.299" height="40" fill="white" transform="translate(0.580078)"/>
</clipPath>
</defs>
</svg>
