<svg width="18" height="16" viewBox="0 0 18 16" fill="none" xmlns="http://www.w3.org/2000/svg">
<path d="M3.94331 12.9274C4.38581 12.9274 4.74453 12.5687 4.74453 12.1262C4.74453 11.6837 4.38581 11.325 3.94331 11.325C3.50081 11.325 3.14209 11.6837 3.14209 12.1262C3.14209 12.5687 3.50081 12.9274 3.94331 12.9274Z" fill="#5F6062"/>
<path fill-rule="evenodd" clip-rule="evenodd" d="M7.1869 14.052C7.1869 14.8299 6.55702 15.4598 5.77913 15.4598H2.10687C1.32897 15.4598 0.699097 14.8299 0.699097 14.052V6.05108C0.699097 5.27319 1.32897 4.64331 2.10687 4.64331H5.77913C6.55702 4.64331 7.1869 5.27319 7.1869 6.05108V14.052ZM5.98024 14.052V6.05108C5.98024 5.93926 5.89014 5.84997 5.77913 5.84997H2.10687C1.99585 5.84997 1.90576 5.93926 1.90576 6.05108V14.052C1.90576 14.163 1.99585 14.2531 2.10687 14.2531H5.77913C5.89014 14.2531 5.98024 14.163 5.98024 14.052Z" fill="#5F6062"/>
<path fill-rule="evenodd" clip-rule="evenodd" d="M7.09193 6.37283C6.91174 6.65277 6.53848 6.73483 6.25853 6.55544C5.97779 6.37524 5.89654 6.00198 6.07593 5.72123L8.77241 1.51562C9.09579 1.01044 9.60983 0.658896 10.1971 0.540643C10.7851 0.42239 11.3957 0.547078 11.8888 0.887356L12.0626 1.00641C12.727 1.46414 13.0898 2.24686 13.0094 3.04888L12.7922 5.22248C12.7866 5.2796 12.8051 5.33591 12.8429 5.37774C12.8815 5.41957 12.9354 5.4437 12.9925 5.4437H15.7807C16.4532 5.4437 17.0895 5.75019 17.5094 6.2763C17.9293 6.80159 18.087 7.49019 17.9374 8.14662L16.6672 13.7383C16.4379 14.7454 15.5426 15.4598 14.5097 15.4598H10.3338C9.58248 15.4598 8.83998 15.3045 8.15219 15.002L6.34139 14.2081C6.03651 14.0737 5.89734 13.7182 6.03168 13.4133C6.16522 13.1084 6.52159 12.9692 6.82647 13.1028L8.63646 13.8976C9.17141 14.1324 9.7498 14.2531 10.3338 14.2531H14.5097C14.9795 14.2531 15.3857 13.9289 15.4903 13.4704L16.7613 7.87874C16.8289 7.58029 16.7573 7.26736 16.5666 7.02845C16.3752 6.78953 16.0864 6.65036 15.7807 6.65036H12.9925C12.5943 6.65036 12.2154 6.48223 11.9483 6.187C11.6813 5.89258 11.5517 5.4984 11.5912 5.10262L11.8092 2.92902C11.8454 2.56381 11.6805 2.20825 11.3788 2.0007L11.205 1.88084C10.9806 1.72639 10.7031 1.66927 10.436 1.72317C10.1689 1.77707 9.93482 1.93715 9.78761 2.16641L7.09193 6.37283Z" fill="#5F6062"/>
</svg>
