<svg width="20" height="21" viewBox="0 0 20 21" fill="none" xmlns="http://www.w3.org/2000/svg">
<path d="M10 17.9786C14.1421 17.9786 17.5 14.6207 17.5 10.4786C17.5 6.33644 14.1421 2.97858 10 2.97858C5.85786 2.97858 2.5 6.33644 2.5 10.4786C2.5 14.6207 5.85786 17.9786 10 17.9786Z" fill="url(#paint0_linear_8_466)"/>
<path d="M7.15043 9.77649H6.27418C5.851 9.77649 5.50793 10.1196 5.50793 10.5427V13.8632C5.50793 14.2863 5.851 14.6294 6.27418 14.6294H7.15043C7.57362 14.6294 7.91668 14.2863 7.91668 13.8632V10.5427C7.91668 10.1196 7.57362 9.77649 7.15043 9.77649Z" fill="white"/>
<path d="M14.5833 10.7101C14.5833 10.3983 14.445 10.1222 14.232 9.93459C14.3925 9.77289 14.492 9.55059 14.492 9.3053C14.492 8.81243 14.0909 8.41134 13.5981 8.41134H12.0656V7.38968C12.0656 6.91551 11.9336 6.52089 11.6734 6.21697C11.42 5.92114 11.0182 5.81814 10.648 5.95493C10.2679 6.09547 10.0222 6.44605 10.0222 6.84789V8.15593C10.0222 8.86197 9.01772 9.52109 8.6306 9.71551C8.50464 9.77876 8.42643 10.0733 8.48968 10.1993V12.7535L9.28701 13.6566C9.52822 13.8978 9.84885 14.0306 10.19 14.0306H13.0873C13.5801 14.0306 13.9812 13.6296 13.9812 13.1367C13.9812 13.0672 13.9706 12.9996 13.9552 12.9334C14.2706 12.7952 14.4921 12.4808 14.4921 12.115C14.4921 11.8697 14.3926 11.6474 14.2321 11.4857C14.4451 11.2981 14.5833 11.022 14.5833 10.7101Z" fill="white"/>
<defs>
<linearGradient id="paint0_linear_8_466" x1="10" y1="17.9786" x2="10" y2="2.97858" gradientUnits="userSpaceOnUse">
<stop stop-color="#0064E1"/>
<stop offset="0.9944" stop-color="#26B7FF"/>
</linearGradient>
</defs>
</svg>
