<svg width="21" height="19" viewBox="0 0 21 19" fill="none" xmlns="http://www.w3.org/2000/svg">
<path d="M1.4013 19.0066C1.36861 19.0066 1.33561 19.0039 1.30262 18.9986C1.0231 18.9523 0.813428 18.7179 0.79871 18.4352C0.792498 18.3168 0.306264 6.79479 10.4489 5.20996V1.51396C10.4489 1.27395 10.5911 1.05686 10.8109 0.961129C11.0306 0.864498 11.286 0.908109 11.4627 1.07188L19.9074 8.91339C20.0302 9.0277 20.1 9.1879 20.1 9.35547C20.1 9.52304 20.0302 9.68331 19.9074 9.79755L11.4627 17.6391C11.286 17.8022 11.0306 17.8452 10.8109 17.7498C10.5911 17.6541 10.4489 17.437 10.4489 17.197V13.5575H10.4389C8.75538 13.5575 3.82439 13.9689 1.96119 18.6275C1.86841 18.8593 1.64457 19.0066 1.4013 19.0066ZM11.6553 2.89708V5.73631C11.6553 6.04231 11.4264 6.29975 11.1225 6.3354C4.3242 7.13506 2.57174 12.656 2.13466 15.9411C5.33087 11.9491 11.0356 12.3682 11.1022 12.3735C11.415 12.3997 11.6553 12.661 11.6553 12.9746V15.8139L18.6103 9.35547L11.6553 2.89708Z" fill="black"/>
</svg>
