<svg width="20" height="20" viewBox="0 0 20 20" fill="none" xmlns="http://www.w3.org/2000/svg">
<g clip-path="url(#clip0_8_478)">
<path d="M10.1467 19.6313C4.81543 19.6313 0.493615 15.3095 0.493652 9.97822C0.493652 7.41809 1.51065 4.96282 3.32094 3.15254C7.09124 -0.617091 13.2036 -0.616525 16.9732 3.15378C20.2604 6.44159 20.7371 11.6054 18.1074 15.4395C18.2292 15.9417 18.9293 17.3617 19.5738 18.4954C19.7559 18.8158 19.6438 19.2231 19.3235 19.4052C19.1226 19.5194 18.8768 19.5215 18.674 19.4108C18.6672 19.407 17.9918 19.039 17.2324 18.6745C16.1681 18.1636 15.7079 18.0263 15.5337 17.9895C13.9427 19.0634 12.0661 19.6353 10.1467 19.6313ZM10.1467 1.65967C5.55977 1.65967 1.82807 5.39136 1.82807 9.97826C1.82807 14.5651 5.55977 18.2969 10.1467 18.2969C11.8522 18.3005 13.5172 17.7766 14.9132 16.7968C15.2868 16.535 15.7863 16.6513 16.2703 16.8159C16.5837 16.9226 16.9751 17.0835 17.4355 17.2954C17.2209 16.8517 17.0565 16.4749 16.9461 16.1736C16.7421 15.6169 16.658 15.1738 16.9107 14.8217C17.9255 13.411 18.4695 11.7161 18.4653 9.97829C18.4653 5.39136 14.7336 1.65967 10.1467 1.65967Z" fill="#5F6062"/>
</g>
<defs>
<clipPath id="clip0_8_478">
<rect width="19.3065" height="19.3065" fill="white" transform="translate(0.493408 0.325317)"/>
</clipPath>
</defs>
</svg>
