<svg width="33" height="33" viewBox="0 0 33 33" fill="none" xmlns="http://www.w3.org/2000/svg">
<circle cx="16.2393" cy="16.2393" r="16.2393" fill="#90E0FF"/>
<mask id="mask0_8_441" style="mask-type:luminance" maskUnits="userSpaceOnUse" x="6" y="8" width="20" height="17">
<path d="M25.413 15.9468H23.7542C23.7542 11.7521 20.3606 8.35156 16.1746 8.35156C11.9886 8.35156 8.59499 11.7521 8.59499 15.9468H6.96359C6.84853 15.9468 6.77251 16.0655 6.81908 16.1705C7.15947 16.9316 7.76902 17.6392 8.93195 18.239C9.06824 18.696 9.24357 19.1401 9.45383 19.5656C8.4039 19.5642 7.59232 18.8807 7.14235 18.6123C7.01222 18.5348 6.8362 18.6789 6.91565 18.8086C7.4163 19.626 7.97311 20.4118 8.61964 21.1207C9.87229 22.494 11.4434 23.4342 13.2707 23.8021C14.5631 24.0622 15.976 24.1253 17.2793 23.918C17.9847 23.8055 18.6724 23.5797 19.3093 23.2558C20.0545 22.8776 20.7339 22.3725 21.3222 21.7782C21.9167 21.177 22.4194 20.4852 22.8104 19.7344C23.057 19.2615 23.259 18.7654 23.4125 18.2548C24.5966 17.6522 25.2144 16.9384 25.5582 16.1705C25.6048 16.0655 25.5287 15.9468 25.4137 15.9468H25.413ZM18.7532 16.3249C18.7532 16.889 18.6861 17.3523 18.5532 17.714C18.4196 18.0749 18.1882 18.3824 17.8601 18.6343C17.5314 18.8868 17.1601 19.055 16.7451 19.1394V18.2781C17.0417 18.11 17.2095 17.8848 17.2485 17.6021H16.7451V15.2488H18.7532V16.3256V16.3249ZM21.6057 16.3249C21.6057 16.889 21.5393 17.3523 21.4057 17.714C21.2729 18.0749 21.0414 18.3824 20.7133 18.6343C20.3846 18.8868 20.0127 19.055 19.5976 19.1394V18.2781C19.8942 18.11 20.062 17.8848 20.1017 17.6021H19.5976V15.2488H21.6057V16.3256V16.3249Z" fill="white"/>
</mask>
<g mask="url(#mask0_8_441)">
<mask id="mask1_8_441" style="mask-type:luminance" maskUnits="userSpaceOnUse" x="6" y="8" width="20" height="17">
<path d="M25.9096 8.00818H6.45886V24.3845H25.9096V8.00818Z" fill="white"/>
</mask>
<g mask="url(#mask1_8_441)">
<rect x="6.45447" y="7.98401" width="19.4617" height="16.4051" fill="white"/>
</g>
</g>
</svg>
