<svg width="14" height="16" viewBox="0 0 14 16" fill="none" xmlns="http://www.w3.org/2000/svg">
<path d="M8.61133 15.6709H3.01562C1.72324 15.6709 0.671875 14.6195 0.671875 13.3271V5.3877C0.671875 4.09531 1.72324 3.04395 3.01562 3.04395H8.61133C9.90371 3.04395 10.9551 4.09531 10.9551 5.3877V13.3271C10.9551 14.6195 9.90371 15.6709 8.61133 15.6709ZM3.01562 4.21582C2.36949 4.21582 1.84375 4.74156 1.84375 5.3877V13.3271C1.84375 13.9733 2.36949 14.499 3.01562 14.499H8.61133C9.25746 14.499 9.7832 13.9733 9.7832 13.3271V5.3877C9.7832 4.74156 9.25746 4.21582 8.61133 4.21582H3.01562ZM13.2988 11.8623V3.01465C13.2988 1.72227 12.2475 0.670898 10.9551 0.670898H4.45117C4.12753 0.670898 3.86523 0.933197 3.86523 1.25684C3.86523 1.58047 4.12753 1.84277 4.45117 1.84277H10.9551C11.6012 1.84277 12.127 2.36852 12.127 3.01465V11.8623C12.127 12.1859 12.3893 12.4482 12.7129 12.4482C13.0365 12.4482 13.2988 12.1859 13.2988 11.8623Z" fill="#0A2540"/>
</svg>
