<svg width="20" height="21" viewBox="0 0 20 21" fill="none" xmlns="http://www.w3.org/2000/svg">
<path d="M17.3241 16.3258L10.2408 11.3258C10.0967 11.224 9.9041 11.224 9.76 11.3258L2.67668 16.3258C2.56586 16.4039 2.49992 16.531 2.5 16.6666V17.0833C2.49996 17.3134 2.68652 17.5 2.91664 17.5H17.0833C17.3134 17.5 17.5 17.3134 17.5 17.0833V16.6666C17.5002 16.5312 17.4346 16.4041 17.3241 16.3258Z" fill="#CFD8DC"/>
<path d="M10.2408 11.3258L3.1575 6.32583C2.96973 6.19282 2.70965 6.23723 2.57664 6.42501C2.5266 6.49563 2.49981 6.58009 2.5 6.66665V16.6666C2.49953 16.8968 2.68574 17.0837 2.91586 17.0841C3.00242 17.0843 3.08688 17.0575 3.1575 17.0075L10.2408 12.0075C10.4288 11.8748 10.4737 11.6149 10.341 11.4268C10.3136 11.388 10.2797 11.3541 10.2408 11.3267V11.3258Z" fill="#FAFAFA"/>
<path d="M17.2753 6.29668C17.1368 6.2259 16.9705 6.23711 16.8428 6.32586L9.75945 11.3259C9.57144 11.4586 9.5266 11.7185 9.65929 11.9065C9.68671 11.9454 9.72058 11.9793 9.75945 12.0067L16.8428 17.0067C17.0305 17.1397 17.2906 17.0953 17.4236 16.9075C17.4735 16.8371 17.5003 16.753 17.5003 16.6667V6.66668C17.5003 6.51098 17.4135 6.36828 17.2753 6.29668Z" fill="#EEEEEE"/>
<path d="M18.3129 2.78668C18.2567 2.61562 18.097 2.5 17.917 2.5H2.08367C1.85355 2.5 1.66699 2.68656 1.66699 2.91668C1.66699 3.04781 1.72875 3.17133 1.83367 3.25L9.75035 9.08332C9.8973 9.19152 10.0976 9.19152 10.2445 9.08332L18.1612 3.25C18.3062 3.14434 18.3673 2.95766 18.3129 2.78668Z" fill="#ECEFF1"/>
<path d="M17.9167 2.5C17.8265 2.5 17.7388 2.52926 17.6667 2.58332L10 8.2325L2.33332 2.58332C2.26121 2.52926 2.17348 2.5 2.08332 2.5C0.932734 2.5 0 3.43273 0 4.58332V15.4166C0 16.5673 0.932734 17.5 2.08332 17.5H2.91664C3.14676 17.5 3.33332 17.3134 3.33332 17.0833V7.47082L9.75914 12.0075C9.90324 12.1093 10.0959 12.1093 10.24 12.0075L16.6666 7.47082V17.0833C16.6666 17.3134 16.8532 17.5 17.0833 17.5H17.9166C19.0673 17.5 20 16.5673 20 15.4167V4.58332C20 3.43273 19.0673 2.5 17.9167 2.5Z" fill="#F44336"/>
</svg>
