<svg height="512pt" viewBox="0 0 512.00002 512" width="512pt" xmlns="http://www.w3.org/2000/svg" id="fi_1585175"><path d="m361 229.847656h-80.59375c-5.523438 0-10 4.476563-10 10 0 5.523438 4.476562 10 10 10h80.59375c5.523438 0 10-4.476562 10-10 0-5.523437-4.476562-10-10-10zm0 0"></path><path d="m361 269.847656h-99.128906c-5.523438 0-10 4.476563-10 10 0 5.523438 4.476562 10 10 10h99.128906c5.523438 0 10-4.476562 10-10 0-5.523437-4.476562-10-10-10zm0 0"></path><path d="m221.871094 269.847656c-2.628906 0-5.210938 1.070313-7.070313 2.921875-1.859375 1.871094-2.929687 4.441407-2.929687 7.078125 0 2.632813 1.070312 5.210938 2.929687 7.070313 1.859375 1.863281 4.441407 2.929687 7.070313 2.929687s5.210937-1.066406 7.070312-2.929687c1.859375-1.859375 2.929688-4.4375 2.929688-7.070313 0-2.628906-1.070313-5.207031-2.929688-7.078125-1.859375-1.851562-4.441406-2.921875-7.070312-2.921875zm0 0"></path><path d="m498.160156 289.460938c-15.492187-13.839844-39.023437-14.027344-54.734375-.433594l-29.425781 25.460937v-193.121093c0-18.398438-14.96875-33.367188-33.367188-33.367188h-249.265624c-18.398438 0-33.367188 14.96875-33.367188 33.367188v224.148437c-1.164062.863281-2.3125 1.738281-3.445312 2.644531l-90.785157 72.351563c-4.320312 3.441406-5.03125 9.734375-1.589843 14.054687 1.976562 2.476563 4.886718 3.765625 7.828124 3.765625 2.183594 0 4.382813-.710937 6.226563-2.179687l90.785156-72.351563c19.253907-15.347656 43.417969-23.796875 68.035157-23.796875h105.261718c12.132813 0 22 9.867188 22 22 0 12.128906-9.867187 22-22 22h-67.484375c-5.519531 0-10 4.476563-10 10 0 5.519532 4.480469 10 10 10h67.484375c.683594 0 1.363282-.019531 2.039063-.050781.335937.03125.675781.050781 1.023437.050781h17.390625c26.011719 0 51.167969-9.375 70.839844-26.394531l84.902344-73.457031c8.132812-7.035156 20.308593-6.9375 28.328125.226562 4.609375 4.117188 7.152344 9.792969 7.160156 15.976563.007812 6.183593-2.527344 11.863281-7.132812 15.992187l-80.773438 72.425782c-31.089844 27.875-71.203125 43.226562-112.960938 43.226562h-136.753906c-2.664062 0-5.214844 1.0625-7.09375 2.949219l-39.75 40c-3.894531 3.917969-3.875 10.25.042969 14.144531 1.953125 1.9375 4.5 2.90625 7.050781 2.90625 2.570313 0 5.140625-.984375 7.09375-2.953125l36.816406-37.046875h132.597657c46.6875 0 91.546875-17.167969 126.308593-48.335938l80.773438-72.421874c8.769531-7.863282 13.792969-19.128907 13.78125-30.902344-.011719-11.777344-5.054688-23.03125-13.839844-30.878906zm-205.421875-181.460938v46.859375l-6.300781-6.300781c-3.902344-3.902344-10.234375-3.902344-14.140625 0l-16.296875 16.296875-16.296875-16.296875c-1.953125-1.949219-4.511719-2.929688-7.070313-2.929688-2.558593 0-5.121093.980469-7.070312 2.929688l-6.300781 6.300781v-46.859375zm65.78125 254.488281c-11.902343 10.296875-26.273437 17.152344-41.558593 20.007813 3.40625-6.066406 5.355468-13.054688 5.355468-20.492188 0-23.160156-18.839844-42-42-42h-105.261718c-19.820313 0-39.390626 4.636719-57.054688 13.3125v-211.949218c0-7.371094 5.996094-13.367188 13.367188-13.367188h67.894531v71c0 4.046875 2.4375 7.691406 6.175781 9.238281 3.730469 1.546875 8.035156.695313 10.894531-2.167969l16.300781-16.296874 16.296876 16.296874c3.90625 3.90625 10.234374 3.90625 14.140624 0l16.296876-16.296874 16.300781 16.296874c1.910156 1.914063 4.46875 2.929688 7.070312 2.929688 1.289063 0 2.589844-.25 3.824219-.761719 3.738281-1.546875 6.175781-5.191406 6.175781-9.238281v-71h67.894531c7.371094 0 13.367188 5.996094 13.367188 13.367188v210.425781zm0 0"></path><path d="m256 65c5.523438 0 10-4.476562 10-10v-45c0-5.523438-4.476562-10-10-10s-10 4.476562-10 10v45c0 5.523438 4.476562 10 10 10zm0 0"></path><path d="m437 246c0 5.523438 4.476562 10 10 10h45c5.523438 0 10-4.476562 10-10s-4.476562-10-10-10h-45c-5.523438 0-10 4.476562-10 10zm0 0"></path><path d="m20 256h45c5.523438 0 10-4.476562 10-10s-4.476562-10-10-10h-45c-5.519531 0-10 4.476562-10 10s4.476562 10 10 10zm0 0"></path><path d="m82.148438 86.292969c1.953124 1.949219 4.511718 2.929687 7.074218 2.929687 2.558594 0 5.117188-.980468 7.070313-2.929687 3.902343-3.90625 3.902343-10.238281 0-14.144531l-39.292969-39.292969c-3.90625-3.902344-10.234375-3.902344-14.144531 0-3.902344 3.90625-3.902344 10.238281 0 14.144531zm0 0"></path><path d="m422.777344 89.222656c2.5625 0 5.121094-.980468 7.074218-2.929687l39.292969-39.292969c3.902344-3.90625 3.902344-10.238281 0-14.144531-3.90625-3.902344-10.238281-3.902344-14.144531 0l-39.292969 39.292969c-3.902343 3.90625-3.902343 10.238281 0 14.144531 1.953125 1.949219 4.511719 2.929687 7.070313 2.929687zm0 0"></path><path d="m179.898438 401.070312c1.871093-1.859374 2.933593-4.429687 2.933593-7.070312 0-2.628906-1.0625-5.199219-2.933593-7.070312-1.859376-1.859376-4.4375-2.929688-7.066407-2.929688-2.632812 0-5.210937 1.070312-7.070312 2.929688-1.859375 1.863281-2.929688 4.441406-2.929688 7.070312 0 2.640625 1.066407 5.21875 2.929688 7.070312 1.859375 1.867188 4.4375 2.929688 7.070312 2.929688 2.628907 0 5.207031-1.0625 7.066407-2.929688zm0 0"></path></svg>