<svg width="16" height="16" viewBox="0 0 16 16" fill="none" xmlns="http://www.w3.org/2000/svg">
<g clip-path="url(#clip0_2389_1316)">
<path d="M14.3444 10.0938C14.1381 10.0938 13.9708 10.261 13.9708 10.4674V13.7843C13.9701 14.4031 13.4688 14.9045 12.8501 14.9051H2.36789C1.74915 14.9045 1.24789 14.4031 1.24716 13.7843V4.04929C1.24789 3.43069 1.74915 2.92928 2.36789 2.92855H5.68485C5.89119 2.92855 6.05843 2.76132 6.05843 2.55497C6.05843 2.34878 5.89119 2.1814 5.68485 2.1814H2.36789C1.33676 2.18256 0.501167 3.01815 0.5 4.04929V13.7845C0.501167 14.8156 1.33676 15.6512 2.36789 15.6524H12.8501C13.8812 15.6512 14.7168 14.8156 14.718 13.7845V10.4674C14.718 10.261 14.5508 10.0938 14.3444 10.0938Z" fill="#0A2540"/>
<path d="M14.5703 1.22018C13.9137 0.56365 12.8493 0.56365 12.1928 1.22018L5.52795 7.88504C5.48227 7.93072 5.44929 7.98734 5.43207 8.0495L4.55562 11.2137C4.51958 11.3434 4.55621 11.4823 4.65135 11.5776C4.74665 11.6728 4.88557 11.7094 5.0153 11.6735L8.17947 10.7969C8.24164 10.7797 8.29826 10.7467 8.34394 10.701L15.0086 4.03603C15.6642 3.37905 15.6642 2.31552 15.0086 1.65855L14.5703 1.22018ZM6.34194 8.12787L11.7966 2.67305L13.5558 4.43222L8.10096 9.88704L6.34194 8.12787ZM5.99054 8.833L7.39598 10.2386L5.45192 10.7772L5.99054 8.833ZM14.4804 3.50776L14.0842 3.90396L12.3249 2.14464L12.7212 1.74845C13.0859 1.38377 13.6772 1.38377 14.0419 1.74845L14.4804 2.18682C14.8445 2.55193 14.8445 3.1428 14.4804 3.50776Z" fill="#0A2540"/>
</g>
<defs>
<clipPath id="clip0_2389_1316">
<rect width="15" height="15" fill="white" transform="translate(0.5 0.670898)"/>
</clipPath>
</defs>
</svg>
