<svg width="16" height="16" viewBox="0 0 16 16" fill="none" xmlns="http://www.w3.org/2000/svg">
<g clip-path="url(#clip0_2389_1323)">
<path d="M10.0691 6.10547C9.87503 6.10547 9.71777 6.26272 9.71777 6.45676V13.0961C9.71777 13.29 9.87503 13.4474 10.0691 13.4474C10.2631 13.4474 10.4203 13.29 10.4203 13.0961V6.45676C10.4203 6.26272 10.2631 6.10547 10.0691 6.10547Z" fill="#0A2540"/>
<path d="M5.92355 6.10547C5.72952 6.10547 5.57227 6.26272 5.57227 6.45676V13.0961C5.57227 13.29 5.72952 13.4474 5.92355 13.4474C6.11758 13.4474 6.27484 13.29 6.27484 13.0961V6.45676C6.27484 6.26272 6.11758 6.10547 5.92355 6.10547Z" fill="#0A2540"/>
<path d="M2.90299 5.13654V13.7915C2.90299 14.3031 3.09057 14.7835 3.41825 15.1282C3.74443 15.4738 4.19836 15.6701 4.67342 15.6709H11.3199C11.7951 15.6701 12.249 15.4738 12.575 15.1282C12.9027 14.7835 13.0903 14.3031 13.0903 13.7915V5.13654C13.7417 4.96364 14.1638 4.33435 14.0767 3.66594C13.9894 2.99767 13.4201 2.49777 12.746 2.49764H10.9475V2.05853C10.9495 1.68927 10.8035 1.33468 10.5421 1.07383C10.2807 0.813106 9.92557 0.667926 9.55631 0.670945H6.43699C6.06772 0.667926 5.7126 0.813106 5.45119 1.07383C5.18978 1.33468 5.04378 1.68927 5.04584 2.05853V2.49764H3.24727C2.57324 2.49777 2.00391 2.99767 1.91664 3.66594C1.8295 4.33435 2.2516 4.96364 2.90299 5.13654ZM11.3199 14.9683H4.67342C4.0728 14.9683 3.60556 14.4524 3.60556 13.7915V5.16742H12.3877V13.7915C12.3877 14.4524 11.9205 14.9683 11.3199 14.9683ZM5.74841 2.05853C5.74608 1.87561 5.81798 1.69956 5.94779 1.57043C6.07747 1.44131 6.25393 1.37036 6.43699 1.37352H9.55631C9.73936 1.37036 9.91583 1.44131 10.0455 1.57043C10.1753 1.69942 10.2472 1.87561 10.2449 2.05853V2.49764H5.74841V2.05853ZM3.24727 3.20021H12.746C13.0952 3.20021 13.3783 3.4833 13.3783 3.83253C13.3783 4.18176 13.0952 4.46484 12.746 4.46484H3.24727C2.89805 4.46484 2.61496 4.18176 2.61496 3.83253C2.61496 3.4833 2.89805 3.20021 3.24727 3.20021Z" fill="#0A2540"/>
<path d="M7.99679 6.10547C7.80276 6.10547 7.64551 6.26272 7.64551 6.45676V13.0961C7.64551 13.29 7.80276 13.4474 7.99679 13.4474C8.19083 13.4474 8.34808 13.29 8.34808 13.0961V6.45676C8.34808 6.26272 8.19083 6.10547 7.99679 6.10547Z" fill="#0A2540"/>
</g>
<defs>
<clipPath id="clip0_2389_1323">
<rect width="15" height="15" fill="white" transform="translate(0.5 0.670898)"/>
</clipPath>
</defs>
</svg>
