<svg width="81" height="20" viewBox="0 0 81 20" fill="none" xmlns="http://www.w3.org/2000/svg">
<g clip-path="url(#clip0_2389_1175)">
<g clip-path="url(#clip1_2389_1175)">
<path d="M9.34614 18.1309C9.08002 18.1309 8.82347 18.0344 8.62353 17.8593C7.8684 17.199 7.14038 16.5785 6.49806 16.0312L6.49478 16.0283C4.6116 14.4235 2.98541 13.0377 1.85394 11.6724C0.589125 10.1462 0 8.69915 0 7.11831C0 5.58239 0.526661 4.16541 1.48287 3.12821C2.45048 2.07873 3.77819 1.50073 5.22183 1.50073C6.30083 1.50073 7.28898 1.84186 8.15876 2.51455C8.59771 2.85411 8.9956 3.26968 9.34614 3.75441C9.69681 3.26968 10.0946 2.85411 10.5337 2.51455C11.4034 1.84186 12.3916 1.50073 13.4706 1.50073C14.9141 1.50073 16.2419 2.07873 17.2095 3.12821C18.1658 4.16541 18.6923 5.58239 18.6923 7.11831C18.6923 8.69915 18.1033 10.1462 16.8385 11.6723C15.707 13.0377 14.081 14.4234 12.1981 16.0281C11.5546 16.5763 10.8254 17.1978 10.0686 17.8596C9.8688 18.0344 9.6121 18.1309 9.34614 18.1309ZM5.22183 2.5957C4.08765 2.5957 3.04574 3.04834 2.28776 3.87035C1.51852 4.70477 1.09482 5.8582 1.09482 7.11831C1.09482 8.44787 1.58897 9.63696 2.69691 10.9738C3.76777 12.266 5.36059 13.6234 7.20484 15.1951L7.20826 15.1979C7.853 15.7474 8.58388 16.3703 9.34457 17.0355C10.1098 16.369 10.8418 15.7451 11.4879 15.1948C13.332 13.6231 14.9246 12.266 15.9955 10.9738C17.1033 9.63696 17.5974 8.44787 17.5974 7.11831C17.5974 5.8582 17.1738 4.70477 16.4045 3.87035C15.6467 3.04834 14.6046 2.5957 13.4706 2.5957C12.6397 2.5957 11.8769 2.85981 11.2034 3.38063C10.6031 3.84497 10.185 4.43195 9.93982 4.84267C9.81376 5.05388 9.59185 5.17995 9.34614 5.17995C9.10042 5.17995 8.87851 5.05388 8.75245 4.84267C8.50744 4.43195 8.08931 3.84497 7.48892 3.38063C6.81537 2.85981 6.05254 2.5957 5.22183 2.5957Z" fill="black"/>
</g>
<g clip-path="url(#clip2_2389_1175)">
<path d="M40.4992 19.1707C35.3376 19.1707 31.1533 14.9863 31.1533 9.82469C31.1533 7.34601 32.138 4.96886 33.8907 3.21617C37.541 -0.433532 43.4589 -0.432984 47.1085 3.21737C50.2912 6.40057 50.7527 11.4001 48.2067 15.1122C48.3246 15.5985 49.0024 16.9732 49.6264 18.0709C49.8027 18.3811 49.6942 18.7755 49.3841 18.9518C49.1896 19.0623 48.9516 19.0644 48.7553 18.9572C48.7487 18.9535 48.0948 18.5972 47.3596 18.2443C46.3291 17.7496 45.8836 17.6168 45.7149 17.581C44.1745 18.6208 42.3576 19.1746 40.4992 19.1707ZM40.4992 1.77079C36.0583 1.77079 32.4453 5.38376 32.4453 9.82473C32.4453 14.2657 36.0583 17.8787 40.4992 17.8787C42.1505 17.8822 43.7625 17.3749 45.1141 16.4263C45.4759 16.1728 45.9594 16.2854 46.428 16.4448C46.7314 16.5481 47.1104 16.704 47.5562 16.9091C47.3484 16.4795 47.1892 16.1147 47.0823 15.8229C46.8848 15.284 46.8034 14.855 47.048 14.5141C48.0306 13.1483 48.5573 11.5073 48.5532 9.82476C48.5532 5.38376 44.9402 1.77079 40.4992 1.77079Z" fill="black"/>
</g>
<g clip-path="url(#clip3_2389_1175)">
<path d="M80.8395 0.638677C80.6971 0.496222 80.4879 0.443503 80.2949 0.501369L63.5419 5.5273C62.8036 5.74876 62.3076 6.4154 62.3076 7.18642C62.3076 7.94675 62.8182 8.62365 63.5493 8.83255L70.6242 10.854L72.6456 17.9289C72.8545 18.66 73.5314 19.1706 74.2921 19.1706C75.0628 19.1706 75.7294 18.6746 75.9509 17.9363L80.9768 1.18324C81.0347 0.99029 80.982 0.781133 80.8395 0.638677ZM63.4029 7.18617C63.4029 6.90283 63.5852 6.65778 63.8566 6.57637L78.5292 2.17459L70.9078 9.79594L63.8502 7.77947C63.5868 7.70419 63.4029 7.46035 63.4029 7.18617ZM74.9019 17.6216C74.8204 17.893 74.5754 18.0753 74.2918 18.0753C74.0178 18.0753 73.774 17.8914 73.6988 17.628L71.6823 10.5704L79.3036 2.949L74.9019 17.6216Z" fill="black"/>
</g>
</g>
<defs>
<clipPath id="clip0_2389_1175">
<rect width="81" height="18.6923" fill="white" transform="translate(0 0.478516)"/>
</clipPath>
<clipPath id="clip1_2389_1175">
<rect width="18.6923" height="18.6923" fill="white" transform="translate(0 0.478516)"/>
</clipPath>
<clipPath id="clip2_2389_1175">
<rect width="18.6923" height="18.6923" fill="white" transform="translate(31.1533 0.478271)"/>
</clipPath>
<clipPath id="clip3_2389_1175">
<rect width="18.6923" height="18.6923" fill="white" transform="translate(62.3076 0.478271)"/>
</clipPath>
</defs>
</svg>
