<svg id="fi_5455916" enable-background="new 0 0 511.945 511.945" height="512" viewBox="0 0 511.945 511.945" width="512" xmlns="http://www.w3.org/2000/svg"><g><g><path d="m303.738 75.224c-5.174-1.913-10.932.728-12.849 5.908-1.916 5.18.729 10.933 5.908 12.85 46.161 17.08 77.175 61.574 77.175 110.72 0 65.065-52.935 118-118 118s-118-52.935-118-118c0-49.143 31.012-93.637 77.168-110.718 5.18-1.917 7.825-7.67 5.908-12.85s-7.671-7.827-12.849-5.907c-53.968 19.971-90.227 72.003-90.227 129.475 0 76.094 61.907 138 138 138 76.094 0 138-61.906 138-138 0-57.474-36.262-109.507-90.234-129.478z"></path><path d="m173.01 179.242c-2.589 8.009.147 16.366 6.971 21.293l28.981 20.925-11.079 33.998c-2.606 7.998.108 16.361 6.915 21.304 3.399 2.469 7.293 3.703 11.188 3.703 3.904 0 7.807-1.24 11.211-3.721l28.915-21.067 28.787 20.923c6.808 4.949 15.603 4.945 22.404-.013 6.803-4.956 9.503-13.325 6.88-21.322l-11.089-33.798 28.9-20.954c6.807-4.935 9.528-13.291 6.935-21.288-2.595-7.998-9.703-13.165-18.11-13.165h-35.839l-10.999-33.925c-2.595-8.001-9.7-13.167-18.109-13.167-.008 0-.017 0-.025 0-8.419.011-15.525 5.196-18.102 13.211l-10.894 33.881h-35.725c-8.416-.001-15.527 5.174-18.116 13.182zm61.129 6.817c4.343 0 8.19-2.804 9.52-6.938l12.214-37.987 12.323 38.01c1.337 4.123 5.178 6.916 9.513 6.916h40.147l-32.408 23.498c-3.519 2.551-4.986 7.083-3.632 11.213l12.436 37.903-32.269-23.453c-3.51-2.551-8.263-2.548-11.768.007l-32.396 23.604 12.419-38.111c1.347-4.133-.13-8.662-3.654-11.206l-32.486-23.455h40.041z"></path><path d="m452.086 227.854c11.451-13.199 11.451-33.106 0-46.306l-15.805-18.216c-3.106-3.581-4.372-8.304-3.472-12.958l4.578-23.678c3.318-17.157-6.635-34.397-23.153-40.103l-22.795-7.874c-4.48-1.548-7.938-5.005-9.485-9.485l-7.874-22.794c-5.705-16.517-22.944-26.469-40.102-23.154l-23.68 4.579c-4.65.902-9.376-.364-12.956-3.472l-18.216-15.805c-13.199-11.451-33.105-11.451-46.306 0l-18.217 15.805c-3.581 3.107-8.302 4.375-12.957 3.472l-23.679-4.579c-17.163-3.315-34.397 6.638-40.103 23.154l-7.874 22.795c-1.547 4.48-5.004 7.938-9.485 9.485l-22.795 7.874c-16.518 5.705-26.471 22.945-23.153 40.102l4.579 23.679c.9 4.654-.365 9.377-3.472 12.957l-15.804 18.216c-11.452 13.199-11.452 33.106 0 46.307l15.804 18.216c3.107 3.581 4.372 8.304 3.473 12.958l-4.58 23.678c-3.318 17.157 6.636 34.397 23.153 40.103l22.796 7.874c4.48 1.548 7.937 5.005 9.485 9.484l7.874 22.796c5.706 16.52 22.95 26.469 40.103 23.153l1.405-.271-.295 116.074c-.01 3.763 2.093 7.211 5.442 8.926 3.35 1.716 7.378 1.405 10.424-.802l61.435-44.494 60.23 44.442c1.753 1.293 3.84 1.953 5.938 1.953 1.533 0 3.073-.353 4.495-1.067 3.366-1.694 5.494-5.139 5.504-8.907l.292-116.074 1.14.221c17.155 3.312 34.397-6.636 40.103-23.153l7.874-22.796c1.548-4.479 5.005-7.937 9.485-9.484l22.795-7.874c16.518-5.705 26.472-22.945 23.153-40.103l-4.578-23.679c-.9-4.653.365-9.376 3.472-12.956zm-139.491 254.321-50.226-37.06c-3.502-2.585-8.277-2.606-11.803-.052l-51.44 37.255.255-100.344 2.263-.438c4.654-.905 9.377.366 12.958 3.473l18.217 15.805c6.6 5.726 14.876 8.589 23.153 8.589 8.276 0 16.554-2.863 23.153-8.589l18.216-15.805c3.581-3.105 8.302-4.377 12.958-3.473l2.548.493zm108.579-249.21c-7.159 8.252-10.075 19.136-8.001 29.86l4.578 23.679c1.44 7.444-2.879 14.925-10.046 17.4l-22.795 7.874c-10.326 3.566-18.294 11.533-21.86 21.859l-7.874 22.796c-2.475 7.168-9.953 11.489-17.4 10.046l-23.68-4.579c-10.723-2.072-21.608.843-29.86 8.002l-18.217 15.805c-5.726 4.97-14.364 4.97-20.092 0l-18.216-15.805c-6.51-5.647-14.657-8.654-23.074-8.654-2.252 0-4.524.215-6.788.652l-23.678 4.579c-7.446 1.446-14.925-2.88-17.401-10.046l-7.874-22.796c-3.566-10.325-11.534-18.293-21.86-21.859l-22.796-7.874c-7.167-2.476-11.486-9.956-10.046-17.401l4.58-23.678c2.074-10.726-.843-21.609-8.002-29.861l-15.804-18.216c-4.969-5.729-4.969-14.366 0-20.093l15.805-18.218c7.159-8.251 10.075-19.135 8.001-29.86l-4.579-23.679c-1.439-7.444 2.879-14.925 10.046-17.4l22.796-7.874c10.326-3.566 18.293-11.535 21.86-21.86l7.874-22.795c2.476-7.166 9.956-11.489 17.401-10.047l23.678 4.579c10.726 2.07 21.61-.843 29.862-8.001l18.217-15.805c5.727-4.971 14.365-4.971 20.092 0l18.215 15.805c8.252 7.159 19.138 10.075 29.86 8.001l23.679-4.579c7.44-1.44 14.925 2.879 17.4 10.047l7.874 22.795c3.566 10.326 11.534 18.294 21.86 21.86l22.795 7.874c7.167 2.476 11.486 9.956 10.046 17.4l-4.578 23.678c-2.074 10.726.842 21.609 8.001 29.862l15.805 18.217c4.969 5.727 4.969 14.364 0 20.092z"></path><circle cx="255.972" cy="76.702" r="10"></circle></g></g></svg>