<svg width="33" height="33" viewBox="0 0 33 33" fill="none" xmlns="http://www.w3.org/2000/svg">
<circle cx="16.2393" cy="16.2393" r="16.2393" fill="#A960EE"/>
<mask id="mask0_2389_1156" style="mask-type:luminance" maskUnits="userSpaceOnUse" x="6" y="8" width="20" height="17">
<path d="M25.4125 15.9468H23.7537C23.7537 11.7521 20.3601 8.35156 16.1741 8.35156C11.9881 8.35156 8.5945 11.7521 8.5945 15.9468H6.9631C6.84804 15.9468 6.77202 16.0655 6.81859 16.1705C7.15898 16.9316 7.76853 17.6392 8.93146 18.239C9.06775 18.696 9.24308 19.1401 9.45334 19.5656C8.40341 19.5642 7.59183 18.8807 7.14186 18.6123C7.01173 18.5348 6.83572 18.6789 6.91516 18.8086C7.41581 19.626 7.97262 20.4118 8.61915 21.1207C9.87181 22.494 11.4429 23.4342 13.2702 23.8021C14.5626 24.0622 15.9755 24.1253 17.2788 23.918C17.9843 23.8055 18.6719 23.5797 19.3088 23.2558C20.054 22.8776 20.7334 22.3725 21.3217 21.7782C21.9162 21.177 22.4189 20.4852 22.8099 19.7344C23.0565 19.2615 23.2585 18.7654 23.412 18.2548C24.5961 17.6522 25.2139 16.9384 25.5577 16.1705C25.6043 16.0655 25.5283 15.9468 25.4132 15.9468H25.4125ZM18.7527 16.3249C18.7527 16.889 18.6856 17.3523 18.5527 17.714C18.4192 18.0749 18.1877 18.3824 17.8596 18.6343C17.5309 18.8868 17.1597 19.055 16.7446 19.1394V18.2781C17.0412 18.11 17.209 17.8848 17.248 17.6021H16.7446V15.2488H18.7527V16.3256V16.3249ZM21.6052 16.3249C21.6052 16.889 21.5388 17.3523 21.4053 17.714C21.2724 18.0749 21.0409 18.3824 20.7128 18.6343C20.3841 18.8868 20.0122 19.055 19.5972 19.1394V18.2781C19.8937 18.11 20.0615 17.8848 20.1012 17.6021H19.5972V15.2488H21.6052V16.3256V16.3249Z" fill="white"/>
</mask>
<g mask="url(#mask0_2389_1156)">
<mask id="mask1_2389_1156" style="mask-type:luminance" maskUnits="userSpaceOnUse" x="6" y="8" width="20" height="17">
<path d="M25.9087 8.0083H6.45801V24.3846H25.9087V8.0083Z" fill="white"/>
</mask>
<g mask="url(#mask1_2389_1156)">
<rect x="6.45312" y="7.98438" width="19.4617" height="16.4051" fill="white"/>
</g>
</g>
</svg>
