<svg id="fi_9052945" enable-background="new 0 0 24 24" height="512" viewBox="0 0 24 24" width="512" xmlns="http://www.w3.org/2000/svg"><path d="m8.7 7.7 2.3-2.3v9.6c0 .6.4 1 1 1s1-.4 1-1v-9.6l2.3 2.3c.4.4 1 .4 1.4 0s.4-1 0-1.4l-4-4c-.1-.1-.2-.2-.3-.2-.1-.1-.3-.1-.4-.1-.1 0-.3 0-.4.1-.1 0-.2.1-.3.2l-4 4c-.4.4-.4 1 0 1.4s1 .4 1.4 0zm12.3 2.3c-.6 0-1 .4-1 1v6.8c0 .9 0 1.4-.1 1.7-.1.2-.3.3-.4.4-.3.1-.8.1-1.7.1h-11.6c-.9 0-1.4 0-1.7-.1-.2-.1-.3-.3-.4-.4-.1-.3-.1-.8-.1-1.7v-6.8c0-.6-.4-1-1-1s-1 .4-1 1v6.8c0 1.2 0 1.9.3 2.6.3.6.7 1 1.3 1.3.7.3 1.4.3 2.6.3h11.6c1.2 0 1.9 0 2.6-.3.6-.3 1-.7 1.3-1.3.3-.7.3-1.4.3-2.6v-6.8c0-.6-.4-1-1-1z"></path></svg>