<svg width="45" height="34" viewBox="0 0 45 34" fill="none" xmlns="http://www.w3.org/2000/svg">
<path d="M15.8642 0.144043L18.2962 4.49604C16.9309 6.37337 15.6509 8.46404 14.4562 10.768C13.3469 13.072 12.7069 15.4614 12.5362 17.936L19.5762 19.216V33.936H-0.0078125V23.44C-0.0078125 17.3814 1.40019 12.5174 4.21619 8.84805C7.11752 5.09338 11.0002 2.19204 15.8642 0.144043ZM41.2082 0.144043L43.6402 4.49604C42.2749 6.37337 40.9949 8.46404 39.8002 10.768C38.6909 13.072 38.0509 15.4614 37.8802 17.936L44.9202 19.216V33.936H25.3362V23.44C25.3362 17.3814 26.7442 12.5174 29.5602 8.84805C32.4615 5.09338 36.3442 2.19204 41.2082 0.144043Z" fill="black"/>
</svg>
