<svg width="20" height="21" viewBox="0 0 20 21" fill="none" xmlns="http://www.w3.org/2000/svg">
<g id="fi_841743" clip-path="url(#clip0_2528_3131)">
<g id="Group">
<g id="Group_2">
<path id="Vector" d="M9.99902 3.09766C9.67543 3.09766 9.41309 3.36 9.41309 3.68359C9.41309 4.00719 9.67543 4.26953 9.99902 4.26953C11.9379 4.26953 13.5152 5.84664 13.5152 7.78516C13.5152 8.10875 13.7776 8.37109 14.1012 8.37109C14.4248 8.37109 14.6871 8.10875 14.6871 7.78516C14.6871 5.20047 12.5841 3.09766 9.99902 3.09766Z" fill="black"/>
</g>
</g>
<g id="Group_3">
<g id="Group_4">
<path id="Vector_2" d="M8.48927 0.911843C5.84201 1.46501 3.69552 3.59094 3.13072 6.25466C2.6538 8.50395 3.2415 10.7622 4.7431 12.4502C5.47712 13.2754 5.89806 14.3645 5.89806 15.4415V16.6134C5.89806 17.3931 6.40849 18.0555 7.11263 18.2849C7.34419 19.6531 8.53169 20.754 9.99962 20.754C11.4672 20.754 12.655 19.6534 12.8866 18.2849C13.5908 18.0555 14.1012 17.3931 14.1012 16.6134V15.4415C14.1012 14.3624 14.5235 13.2863 15.2903 12.4115C16.4127 11.131 17.0309 9.48802 17.0309 7.78528C17.0309 3.34915 12.9704 -0.0243289 8.48927 0.911843ZM9.99962 19.5822C9.24642 19.5822 8.58603 19.0639 8.34216 18.3673H11.657C11.4132 19.0639 10.7528 19.5822 9.99962 19.5822ZM12.9293 16.6134C12.9293 16.9365 12.6665 17.1993 12.3434 17.1993H7.65587C7.33279 17.1993 7.06994 16.9365 7.06994 16.6134V16.0275H12.9293V16.6134ZM14.4091 11.6391C13.5919 12.5714 13.0891 13.6956 12.9615 14.8556H7.03783C6.91041 13.695 6.40892 12.5597 5.61877 11.6714C4.36728 10.2645 3.87826 8.37876 4.27712 6.49774C4.74271 4.30188 6.53177 2.51809 8.729 2.05899C12.4799 1.27512 15.859 4.092 15.859 7.78528C15.859 9.20372 15.3441 10.5724 14.4091 11.6391Z" fill="black"/>
</g>
</g>
<g id="Group_5">
<g id="Group_6">
<path id="Vector_3" d="M1.75781 7.78516H0.585938C0.262344 7.78516 0 8.0475 0 8.37109C0 8.69469 0.262344 8.95703 0.585938 8.95703H1.75781C2.08141 8.95703 2.34375 8.69469 2.34375 8.37109C2.34375 8.0475 2.08141 7.78516 1.75781 7.78516Z" fill="black"/>
</g>
</g>
<g id="Group_7">
<g id="Group_8">
<path id="Vector_4" d="M2.00076 4.85548L1.17213 4.02685C0.94334 3.79802 0.572324 3.79802 0.343496 4.02685C0.114668 4.25567 0.114668 4.62665 0.343496 4.85548L1.17213 5.68411C1.40092 5.91294 1.77193 5.91298 2.00076 5.68411C2.22959 5.45528 2.22959 5.08431 2.00076 4.85548Z" fill="black"/>
</g>
</g>
<g id="Group_9">
<g id="Group_10">
<path id="Vector_5" d="M2.00076 11.0581C1.77193 10.8293 1.40092 10.8293 1.17213 11.0581L0.343496 11.8867C0.114668 12.1156 0.114668 12.4865 0.343496 12.7154C0.572285 12.9442 0.943301 12.9442 1.17213 12.7154L2.00076 11.8867C2.22959 11.6579 2.22959 11.2869 2.00076 11.0581Z" fill="black"/>
</g>
</g>
<g id="Group_11">
<g id="Group_12">
<path id="Vector_6" d="M19.4141 7.78516H18.2422C17.9186 7.78516 17.6562 8.0475 17.6562 8.37109C17.6562 8.69469 17.9186 8.95703 18.2422 8.95703H19.4141C19.7377 8.95703 20 8.69469 20 8.37109C20 8.0475 19.7377 7.78516 19.4141 7.78516Z" fill="black"/>
</g>
</g>
<g id="Group_13">
<g id="Group_14">
<path id="Vector_7" d="M19.657 4.02685C19.4282 3.79802 19.0572 3.79802 18.8284 4.02685L17.9997 4.85548C17.7709 5.08431 17.7709 5.45528 17.9997 5.68411C18.2285 5.9129 18.5996 5.91294 18.8284 5.68411L19.657 4.85548C19.8858 4.62665 19.8858 4.25567 19.657 4.02685Z" fill="black"/>
</g>
</g>
<g id="Group_15">
<g id="Group_16">
<path id="Vector_8" d="M19.657 11.8867L18.8284 11.0581C18.5996 10.8293 18.2286 10.8293 17.9997 11.0581C17.7709 11.2869 17.7709 11.6579 17.9997 11.8867L18.8284 12.7154C19.0572 12.9442 19.4282 12.9442 19.657 12.7154C19.8858 12.4865 19.8858 12.1156 19.657 11.8867Z" fill="black"/>
</g>
</g>
</g>
<defs>
<clipPath id="clip0_2528_3131">
<rect width="20" height="20" fill="white" transform="translate(0 0.754395)"/>
</clipPath>
</defs>
</svg>
