<svg width="20" height="21" viewBox="0 0 20 21" fill="none" xmlns="http://www.w3.org/2000/svg">
<g id="fi_8224703">
<path id="Vector" d="M3.6 7.63033C4.01486 7.62993 4.42029 7.50655 4.76504 7.27578C5.10979 7.04501 5.37839 6.71721 5.53687 6.33381C5.69536 5.95042 5.73662 5.52864 5.65544 5.1218C5.57427 4.71496 5.37429 4.34132 5.0808 4.04811C4.78731 3.7549 4.41348 3.55528 4.00656 3.47449C3.59965 3.3937 3.17791 3.43537 2.79467 3.59422C2.41143 3.75307 2.08388 4.02198 1.85344 4.36695C1.623 4.71192 1.5 5.11747 1.5 5.53233C1.50053 6.08893 1.72201 6.62256 2.11578 7.01596C2.50955 7.40935 3.04339 7.63033 3.6 7.63033ZM3.6 4.43033C3.81716 4.43033 4.02945 4.49472 4.21002 4.61537C4.39058 4.73602 4.53131 4.90751 4.61442 5.10814C4.69752 5.30877 4.71927 5.52954 4.6769 5.74254C4.63454 5.95553 4.52996 6.15117 4.3764 6.30473C4.22285 6.45829 4.0272 6.56286 3.81421 6.60523C3.60122 6.64759 3.38045 6.62585 3.17981 6.54275C2.97918 6.45964 2.8077 6.31891 2.68705 6.13834C2.5664 5.95778 2.502 5.74549 2.502 5.52833C2.50306 5.23781 2.61921 4.95956 2.82501 4.75451C3.03081 4.54946 3.30948 4.43432 3.6 4.43433V4.43033Z" fill="black"/>
<path id="Vector_2" d="M16.958 3.71851H7.95804C7.54923 3.71904 7.15733 3.88167 6.86826 4.17074C6.5792 4.4598 6.41657 4.85171 6.41604 5.26051V5.80251C6.41498 6.00628 6.45427 6.20824 6.53164 6.39676C6.60901 6.58527 6.72293 6.7566 6.86683 6.90088C7.01074 7.04515 7.18178 7.15952 7.37009 7.23737C7.5584 7.31523 7.76026 7.35504 7.96404 7.35451H16.964C17.3732 7.35398 17.7654 7.19108 18.0545 6.90158C18.3436 6.61208 18.506 6.21966 18.506 5.81051V5.26051C18.5058 5.05758 18.4655 4.85669 18.3875 4.66934C18.3096 4.48198 18.1955 4.31183 18.0517 4.16862C17.9079 4.0254 17.7373 3.91193 17.5497 3.8347C17.362 3.75747 17.161 3.71799 16.958 3.71851ZM17.5 5.80251C17.5011 5.87445 17.4879 5.94589 17.4611 6.01269C17.4344 6.07948 17.3947 6.14031 17.3443 6.19165C17.2939 6.24299 17.2338 6.28382 17.1675 6.31177C17.1012 6.33973 17.03 6.35425 16.958 6.35451H7.95804C7.81411 6.35398 7.67625 6.29643 7.57466 6.19447C7.47307 6.09251 7.41604 5.95444 7.41604 5.81051V5.26051C7.41656 5.11693 7.47384 4.97937 7.57537 4.87784C7.6769 4.77631 7.81445 4.71904 7.95804 4.71851H16.958C17.1016 4.71904 17.2392 4.77631 17.3407 4.87784C17.4422 4.97937 17.4995 5.11693 17.5 5.26051V5.80251Z" fill="black"/>
<path id="Vector_3" d="M3.6 12.8525C4.01486 12.8521 4.42029 12.7287 4.76504 12.4979C5.10979 12.2672 5.37839 11.9394 5.53687 11.556C5.69536 11.1726 5.73662 10.7508 5.65544 10.344C5.57427 9.93713 5.37429 9.56349 5.0808 9.27028C4.78731 8.97707 4.41348 8.77745 4.00656 8.69666C3.59965 8.61587 3.17791 8.65754 2.79467 8.81639C2.41143 8.97524 2.08388 9.24414 1.85344 9.58912C1.623 9.93409 1.5 10.3396 1.5 10.7545C1.5 11.0302 1.55433 11.3032 1.65989 11.5578C1.76545 11.8125 1.92017 12.0439 2.1152 12.2387C2.31023 12.4336 2.54174 12.5881 2.79652 12.6934C3.05129 12.7987 3.32432 12.8528 3.6 12.8525ZM3.6 9.65249C3.81691 9.65289 4.02884 9.71752 4.20905 9.83824C4.38927 9.95895 4.52969 10.1303 4.61261 10.3308C4.69552 10.5312 4.71721 10.7517 4.67494 10.9645C4.63267 11.1772 4.52834 11.3727 4.3751 11.5262C4.22186 11.6797 4.02659 11.7844 3.81392 11.8271C3.60124 11.8697 3.3807 11.8484 3.18012 11.7659C2.97953 11.6833 2.80789 11.5432 2.68685 11.3632C2.56581 11.1832 2.50079 10.9714 2.5 10.7545C2.5 10.6101 2.52847 10.4672 2.58377 10.3338C2.63908 10.2005 2.72013 10.0794 2.8223 9.97738C2.92447 9.8754 3.04575 9.79456 3.1792 9.7395C3.31265 9.68444 3.45564 9.65623 3.6 9.65649V9.65249Z" fill="black"/>
<path id="Vector_4" d="M16.958 8.94043H7.95802C7.54887 8.94096 7.15666 9.10386 6.86754 9.39336C6.57841 9.68286 6.41602 10.0753 6.41602 10.4844V11.0244C6.41602 11.4336 6.57841 11.826 6.86754 12.1155C7.15666 12.405 7.54887 12.5679 7.95802 12.5684H16.958C17.3672 12.5679 17.7594 12.405 18.0485 12.1155C18.3376 11.826 18.5 11.4336 18.5 11.0244V10.4844C18.5 10.0753 18.3376 9.68286 18.0485 9.39336C17.7594 9.10386 17.3672 8.94096 16.958 8.94043ZM17.5 11.0244C17.5 11.1684 17.443 11.3064 17.3414 11.4084C17.2398 11.5104 17.1019 11.5679 16.958 11.5684H7.95802C7.81408 11.5679 7.67623 11.5104 7.57464 11.4084C7.47305 11.3064 7.41601 11.1684 7.41602 11.0244V10.4844C7.41601 10.3405 7.47305 10.2024 7.57464 10.1005C7.67623 9.99851 7.81408 9.94096 7.95802 9.94043H16.958C17.1019 9.94096 17.2398 9.99851 17.3414 10.1005C17.443 10.2024 17.5 10.3405 17.5 10.4844V11.0244Z" fill="black"/>
<path id="Vector_5" d="M3.6 18.0744C4.01486 18.074 4.42029 17.9506 4.76504 17.7199C5.10979 17.4891 5.37839 17.1613 5.53687 16.7779C5.69536 16.3945 5.73662 15.9727 5.65544 15.5659C5.57427 15.1591 5.37429 14.7854 5.0808 14.4922C4.78731 14.199 4.41348 13.9994 4.00656 13.9186C3.59965 13.8378 3.17791 13.8795 2.79467 14.0383C2.41143 14.1972 2.08388 14.4661 1.85344 14.811C1.623 15.156 1.5 15.5616 1.5 15.9764C1.5 16.2521 1.55433 16.5251 1.65989 16.7798C1.76545 17.0344 1.92017 17.2658 2.1152 17.4606C2.31023 17.6555 2.54174 17.81 2.79652 17.9153C3.05129 18.0206 3.32432 18.0747 3.6 18.0744ZM3.6 14.8744C3.81716 14.8744 4.02945 14.9388 4.21002 15.0595C4.39058 15.1801 4.53131 15.3516 4.61442 15.5522C4.69752 15.7529 4.71927 15.9736 4.6769 16.1866C4.63454 16.3996 4.52996 16.5953 4.3764 16.7488C4.22285 16.9024 4.0272 17.007 3.81421 17.0493C3.60122 17.0917 3.38045 17.0699 3.17981 16.9868C2.97918 16.9037 2.8077 16.763 2.68705 16.5824C2.5664 16.4019 2.502 16.1896 2.502 15.9724C2.50306 15.6819 2.61921 15.4036 2.82501 15.1986C3.03081 14.9935 3.30948 14.8784 3.6 14.8784V14.8744Z" fill="black"/>
<path id="Vector_6" d="M16.958 14.1543H7.95802C7.54887 14.1548 7.15666 14.3177 6.86754 14.6072C6.57841 14.8967 6.41602 15.2891 6.41602 15.6983V16.2403C6.41654 16.6491 6.57917 17.041 6.86824 17.3301C7.15731 17.6191 7.54921 17.7818 7.95802 17.7823H16.958C17.3668 17.7818 17.7587 17.6191 18.0478 17.3301C18.3369 17.041 18.4995 16.6491 18.5 16.2403V15.7063C18.5011 15.503 18.462 15.3016 18.385 15.1134C18.308 14.9253 18.1946 14.7543 18.0513 14.6101C17.9081 14.4659 17.7377 14.3514 17.5501 14.2732C17.3625 14.195 17.1613 14.1546 16.958 14.1543ZM17.5 16.2483C17.4995 16.3919 17.4422 16.5294 17.3407 16.631C17.2392 16.7325 17.1016 16.7898 16.958 16.7903H7.95802C7.81443 16.7898 7.67688 16.7325 7.57535 16.631C7.47381 16.5294 7.41654 16.3919 7.41602 16.2483V15.7063C7.41495 15.6338 7.42836 15.5619 7.45547 15.4947C7.48259 15.4275 7.52285 15.3664 7.57389 15.315C7.62494 15.2636 7.68575 15.2229 7.75274 15.1953C7.81973 15.1677 7.89156 15.1538 7.96402 15.1543H16.964C17.1079 15.1548 17.2458 15.2124 17.3474 15.3143C17.449 15.4163 17.506 15.5544 17.506 15.6983L17.5 16.2483Z" fill="black"/>
</g>
</svg>
