<svg xmlns="http://www.w3.org/2000/svg" width="20" height="21" viewBox="0 0 20 21" fill="none">
  <path d="M7.5 1.6272H3.125C2.09125 1.6272 1.25 2.46845 1.25 3.5022V7.8772C1.25 8.91095 2.09125 9.7522 3.125 9.7522H7.5C8.53375 9.7522 9.375 8.91095 9.375 7.8772V3.5022C9.375 2.46845 8.53375 1.6272 7.5 1.6272ZM8.125 7.8772C8.125 8.22157 7.84438 8.5022 7.5 8.5022H3.125C2.78062 8.5022 2.5 8.22157 2.5 7.8772V3.5022C2.5 3.15782 2.78062 2.8772 3.125 2.8772H7.5C7.84438 2.8772 8.125 3.15782 8.125 3.5022V7.8772ZM7.5 11.0022H3.125C2.09125 11.0022 1.25 11.8434 1.25 12.8772V17.2522C1.25 18.2859 2.09125 19.1272 3.125 19.1272H7.5C8.53375 19.1272 9.375 18.2859 9.375 17.2522V12.8772C9.375 11.8434 8.53375 11.0022 7.5 11.0022ZM8.125 17.2522C8.125 17.5966 7.84438 17.8772 7.5 17.8772H3.125C2.78062 17.8772 2.5 17.5966 2.5 17.2522V12.8772C2.5 12.5328 2.78062 12.2522 3.125 12.2522H7.5C7.84438 12.2522 8.125 12.5328 8.125 12.8772V17.2522ZM16.875 11.0022H12.5C11.4663 11.0022 10.625 11.8434 10.625 12.8772V17.2522C10.625 18.2859 11.4663 19.1272 12.5 19.1272H16.875C17.9088 19.1272 18.75 18.2859 18.75 17.2522V12.8772C18.75 11.8434 17.9088 11.0022 16.875 11.0022ZM17.5 17.2522C17.5 17.5966 17.2194 17.8772 16.875 17.8772H12.5C12.1556 17.8772 11.875 17.5966 11.875 17.2522V12.8772C11.875 12.5328 12.1556 12.2522 12.5 12.2522H16.875C17.2194 12.2522 17.5 12.5328 17.5 12.8772V17.2522ZM10.625 5.3772C10.625 5.0322 10.905 4.7522 11.25 4.7522H14.0625V2.2522C14.0625 1.9072 14.3425 1.6272 14.6875 1.6272C15.0325 1.6272 15.3125 1.9072 15.3125 2.2522V4.7522H18.125C18.47 4.7522 18.75 5.0322 18.75 5.3772C18.75 5.7222 18.47 6.0022 18.125 6.0022H15.3125V9.1272C15.3125 9.4722 15.0325 9.7522 14.6875 9.7522C14.3425 9.7522 14.0625 9.4722 14.0625 9.1272V6.0022H11.25C10.905 6.0022 10.625 5.7222 10.625 5.3772Z" fill="black"/>
</svg>