<svg width="15" height="15" viewBox="0 0 15 15" fill="none" xmlns="http://www.w3.org/2000/svg">
<g clip-path="url(#clip0_2618_487)">
<path d="M14.4681 2.06921C14.1458 2.03982 13.8608 2.27728 13.8314 2.59954L13.7538 3.45117C12.4366 1.38264 10.1501 0 7.50086 0C4.65083 0 2.13918 1.62662 0.892364 4.06799C0.745177 4.35618 0.859493 4.70912 1.14769 4.85631C1.43594 5.0035 1.78882 4.88921 1.93601 4.60099C2.99119 2.53485 5.11015 1.17188 7.50086 1.17188C9.67987 1.17188 11.6463 2.30657 12.7729 4.08422L11.9375 3.48753C11.6741 3.29947 11.3082 3.36047 11.1201 3.62379C10.9321 3.88714 10.993 4.25306 11.2564 4.44114L13.7898 6.25055C14.1611 6.51524 14.6733 6.27293 14.7139 5.82694L14.9984 2.70595C15.0278 2.38365 14.7904 2.09859 14.4681 2.06921Z" fill="#6300C1"/>
<path d="M13.8531 10.1438C13.5649 9.99665 13.212 10.1109 13.0648 10.3991C12.0096 12.4653 9.89068 13.8282 7.49997 13.8282C5.32095 13.8282 3.35449 12.6935 2.22791 10.9159L3.06337 11.5126C3.32672 11.7006 3.69263 11.6396 3.88072 11.3763C4.06878 11.113 4.00778 10.7471 3.74446 10.559L1.21101 8.74957C0.844245 8.48754 0.327976 8.72259 0.28696 9.17317L0.00245823 12.2942C-0.0269265 12.6164 0.210525 12.9015 0.532761 12.9309C0.855437 12.9602 1.14011 12.7225 1.16947 12.4005L1.24711 11.5489C2.56424 13.6175 4.85068 15.0001 7.49997 15.0001C10.35 15.0001 12.8616 13.3735 14.1085 10.9321C14.2557 10.6439 14.1413 10.291 13.8531 10.1438Z" fill="#6300C1"/>
</g>
<defs>
<clipPath id="clip0_2618_487">
<rect width="15" height="15" fill="white"/>
</clipPath>
</defs>
</svg>
