<svg width="13" height="13" viewBox="0 0 13 13" fill="none" xmlns="http://www.w3.org/2000/svg">
<path d="M5.00044 6.78659C4.75636 7.03071 4.75636 7.4264 5.00044 7.67053C5.24451 7.91459 5.64025 7.91459 5.88431 7.67053L5.00044 6.78659ZM8.91318 4.64165C9.15725 4.39757 9.15725 4.00184 8.91318 3.75776C8.66912 3.51369 8.27337 3.51369 8.02931 3.75776L8.91318 4.64165ZM5.88431 7.67053L8.91318 4.64165L8.02931 3.75776L5.00044 6.78659L5.88431 7.67053Z" fill="white"/>
<path d="M10.8131 0.295609L0.932352 3.33583L1.29996 4.53055L11.1806 1.49033L10.8131 0.295609ZM0.740939 5.64858L4.92858 7.74239L5.48758 6.62439L1.29996 4.53055L0.740939 5.64858ZM4.92858 7.74239L7.02239 11.9301L8.14045 11.371L6.04664 7.18339L4.92858 7.74239ZM9.33514 11.7386L12.3754 1.85794L11.1806 1.49033L8.14045 11.371L9.33514 11.7386ZM7.02239 11.9301C7.5267 12.9387 9.00351 12.8165 9.33514 11.7386L8.14045 11.371L7.02239 11.9301ZM4.92858 7.74239L6.04664 7.18339C5.92564 6.94145 5.72951 6.74533 5.48758 6.62439L4.92858 7.74239ZM0.932352 3.33583C-0.145486 3.66747 -0.267704 5.14426 0.740939 5.64858L1.29996 4.53055L0.932352 3.33583ZM11.1806 1.49033L12.3754 1.85794C12.6705 0.898846 11.7721 0.000502408 10.8131 0.295609L11.1806 1.49033Z" fill="white"/>
</svg>
