<svg width="21" height="21" viewBox="0 0 21 21" fill="none" xmlns="http://www.w3.org/2000/svg">
<g clip-path="url(#clip0_2532_4939)">
<path d="M15.8979 1.63068H4.50635C2.13329 1.63068 0.202148 3.60398 0.202148 6.02888V10.3856C0.202148 12.8105 2.13329 14.7838 4.50635 14.7838H11.7067L16.941 19.0788V14.6513C18.8344 14.1692 20.2021 12.426 20.2021 10.3856V6.02888C20.2021 3.60398 18.271 1.63068 15.8979 1.63068ZM4.80786 10.0859C4.29823 10.0859 3.84411 9.9748 3.54994 9.81553L3.7648 8.94761C3.98758 9.08313 4.44962 9.24243 4.8079 9.24243C5.17411 9.24243 5.3255 9.11488 5.3255 8.9159C5.3255 8.71631 5.20586 8.62108 4.75239 8.46974C3.94794 8.19876 3.63729 7.76113 3.64521 7.29908C3.64521 6.57459 4.26656 6.02529 5.2297 6.02529C5.68378 6.02529 6.09031 6.12843 6.32892 6.24806L6.11407 7.08423C5.93888 6.98839 5.60443 6.86084 5.26994 6.86084C4.97513 6.86084 4.8079 6.98047 4.8079 7.17945C4.8079 7.36255 4.95925 7.45839 5.43717 7.62562C6.17754 7.88015 6.48819 8.25488 6.49615 8.82802C6.49611 9.55247 5.92296 10.0859 4.80786 10.0859ZM13.1129 10.0066H11.9344V7.88864C11.9344 7.32284 11.7506 6.99631 11.3606 6.99631C11.0823 6.99631 10.8827 7.18733 10.8034 7.41868C10.7716 7.50594 10.7558 7.63353 10.7558 7.72933V10.0066H9.57721V7.82455C9.57721 7.33076 9.40203 6.99631 9.01933 6.99631C8.70929 6.99631 8.52554 7.23557 8.45415 7.43455C8.41447 7.52978 8.40656 7.64145 8.40656 7.73729V10.0066H7.22798V7.35464C7.22798 6.86941 7.21211 6.45496 7.19623 6.11255H8.21554L8.27109 6.63806H8.29488C8.46211 6.39149 8.80452 6.02529 9.47345 6.02529C9.97517 6.02529 10.3731 6.27982 10.5404 6.6857H10.5562C10.6997 6.48672 10.8748 6.32741 11.0579 6.21635C11.2734 6.0888 11.512 6.02533 11.7989 6.02533C12.5472 6.02533 13.113 6.55084 13.113 7.71296V10.0066H13.1129ZM15.11 10.0859C14.6004 10.0859 14.1462 9.9748 13.8521 9.81553L14.0669 8.94761C14.2897 9.08313 14.7517 9.24243 15.11 9.24243C15.4762 9.24243 15.6276 9.11488 15.6276 8.9159C15.6276 8.71631 15.508 8.62108 15.0545 8.46974C14.25 8.19876 13.9394 7.76113 13.9473 7.29908C13.9473 6.57459 14.5686 6.02529 15.5318 6.02529C15.9859 6.02529 16.3918 6.12843 16.631 6.24806L16.4161 7.08423C16.241 6.98839 15.9065 6.86084 15.572 6.86084C15.2772 6.86084 15.11 6.98047 15.11 7.17945C15.11 7.36255 15.2613 7.45839 15.7393 7.62562C16.4796 7.88015 16.7903 8.25488 16.7982 8.82802C16.7982 9.55247 16.2251 10.0859 15.11 10.0859Z" fill="#FFCB57"/>
</g>
<defs>
<clipPath id="clip0_2532_4939">
<rect width="20" height="20" fill="white" transform="translate(0.202148 0.354736)"/>
</clipPath>
</defs>
</svg>
