<svg xmlns="http://www.w3.org/2000/svg" version="1.1" xmlns:xlink="http://www.w3.org/1999/xlink"  width="512" height="512" x="0" y="0" viewBox="0 0 48 48" style="enable-background:new 0 0 512 512" xml:space="preserve" fill-rule="evenodd" class=""><g><path fill="#000034" d="M27.431 40.049a16.578 16.578 0 0 1-3.431.357c-9.107 0-16.5-7.393-16.5-16.5 0-1.379-1.12-2.5-2.5-2.5s-2.5 1.121-2.5 2.5c0 11.867 9.634 21.5 21.5 21.5 1.531 0 3.025-.16 4.466-.465a2.501 2.501 0 0 0-1.035-4.892zM26.325 7.569c8.008 1.13 14.175 8.02 14.175 16.337 0 5.884-3.087 11.053-7.728 13.975a2.5 2.5 0 0 0 2.664 4.231C41.481 38.305 45.5 31.571 45.5 23.906c0-10.839-8.04-19.815-18.476-21.288-1.366-.193-2.632.76-2.825 2.126s.76 2.632 2.126 2.825z" data-original="#000034"></path><path fill="#a960ee" d="M8.687 17.752a16.57 16.57 0 0 1 9.854-9.42 2.5 2.5 0 0 0-1.656-4.718 21.585 21.585 0 0 0-12.836 12.27 2.5 2.5 0 0 0 4.638 1.868z" data-original="#ffa523" class="" opacity="1"></path></g></svg>