<svg id="fi_3433048" height="512" viewBox="0 0 32 32" width="512" xmlns="http://www.w3.org/2000/svg" data-name="Layer 4"><g fill="rgb(0,0,0)"><path d="m16 18.07a5.33 5.33 0 1 1 5.33-5.33 5.34 5.34 0 0 1 -5.33 5.33zm0-8.53a3.2 3.2 0 1 0 3.2 3.2 3.2 3.2 0 0 0 -3.2-3.2z"></path><path d="m26.67 19.14a4.27 4.27 0 1 1 4.27-4.27 4.27 4.27 0 0 1 -4.27 4.27zm0-6.4a2.13 2.13 0 1 0 2.13 2.13 2.14 2.14 0 0 0 -2.13-2.13z"></path><path d="m5.33 19.14a4.27 4.27 0 1 1 4.27-4.27 4.27 4.27 0 0 1 -4.27 4.27zm0-6.4a2.13 2.13 0 1 0 2.13 2.13 2.14 2.14 0 0 0 -2.13-2.13z"></path><path d="m22.4 26.41a1.07 1.07 0 0 1 -1.06-1 3.7 3.7 0 0 0 -3.69-3.34h-3.3a3.7 3.7 0 0 0 -3.69 3.34 1.07 1.07 0 0 1 -2.12-.21 5.82 5.82 0 0 1 5.81-5.2h3.3a5.82 5.82 0 0 1 5.81 5.26 1.07 1.07 0 0 1 -1 1.17z"></path><path d="m30.93 25.69a1.07 1.07 0 0 1 -1.06-1 2.1 2.1 0 0 0 -2.11-1.9h-2.2a2.25 2.25 0 0 0 -.62.09 1.07 1.07 0 1 1 -.61-2 4.38 4.38 0 0 1 1.23-.18h2.2a4.23 4.23 0 0 1 4.24 3.82 1.07 1.07 0 0 1 -1 1.17z"></path><path d="m1.07 25.69h-.07a1.07 1.07 0 0 1 -1-1.17 4.23 4.23 0 0 1 4.23-3.82h2.2a4.38 4.38 0 0 1 1.23.18 1.07 1.07 0 1 1 -.61 2 2.25 2.25 0 0 0 -.62-.09h-2.2a2.1 2.1 0 0 0 -2.11 1.9 1.07 1.07 0 0 1 -1.05 1z"></path></g></svg>