<svg width="20" height="21" viewBox="0 0 20 21" fill="none" xmlns="http://www.w3.org/2000/svg">
<g clip-path="url(#clip0_2532_4756)">
<path d="M10.1548 20H10.149C7.165 19.9798 4.87102 18.996 3.32969 17.075C1.95762 15.3659 1.25031 12.9876 1.22656 10.0072V9.99277C1.25035 7.01168 1.95762 4.6341 3.32969 2.92496C4.87027 1.00402 7.165 0.0201562 10.1483 0H10.1598C12.4473 0.0151172 14.361 0.603555 15.8483 1.74734C17.2463 2.8227 18.2302 4.35539 18.7733 6.30367L17.0735 6.77762C16.1538 3.47813 13.8259 1.79129 10.1541 1.76465C7.72969 1.78191 5.89664 2.54395 4.70465 4.02914C3.58824 5.41996 3.01133 7.42875 2.99043 9.9993C3.01203 12.5706 3.58895 14.5794 4.70465 15.9695C5.89668 17.4546 7.72969 18.2166 10.1541 18.2339C12.3393 18.2181 13.7856 17.7089 14.9884 16.5305C16.3612 15.1858 16.336 13.5364 15.8966 12.5332C15.6381 11.9418 15.1684 11.4492 14.5353 11.0761C14.3762 12.2011 14.0182 13.1144 13.465 13.8023C12.7275 14.7205 11.6817 15.2226 10.3579 15.2939C9.35598 15.3479 8.39086 15.111 7.6418 14.6262C6.75586 14.0529 6.2373 13.1756 6.18184 12.1557C6.12781 11.164 6.52109 10.2521 7.28887 9.58801C8.02281 8.95348 9.05492 8.58113 10.2743 8.5127C11.1732 8.46227 12.0137 8.50191 12.7909 8.63152C12.6879 8.01281 12.479 7.52234 12.1679 7.16797C11.74 6.68035 11.0781 6.43117 10.2016 6.42539H10.1771C9.4734 6.42539 8.51762 6.6184 7.90828 7.52449L6.44402 6.53992C7.25934 5.32773 8.58391 4.66078 10.1764 4.66078H10.2124C12.8752 4.67734 14.4605 6.30582 14.6182 9.15008C14.7089 9.18832 14.7975 9.22785 14.8854 9.26895C16.1279 9.85309 17.0361 10.7376 17.5129 11.8266C18.177 13.3448 18.2382 15.819 16.2222 17.7924C14.6823 19.3006 12.8125 19.9812 10.1598 19.9993H10.1541L10.1548 20ZM10.9903 10.2571C10.7886 10.2571 10.584 10.2629 10.3751 10.2751C8.84461 10.3616 7.89098 11.0624 7.945 12.0606C8.00191 13.1064 9.15574 13.5926 10.2642 13.5329C11.2848 13.478 12.613 13.0812 12.8355 10.4407C12.2722 10.3205 11.6529 10.2571 10.9902 10.2571H10.9903Z" fill="black"/>
</g>
<defs>
<clipPath id="clip0_2532_4756">
<rect width="20" height="20" fill="white"/>
</clipPath>
</defs>
</svg>
