<svg width="46" height="34" viewBox="0 0 46 34" fill="none" xmlns="http://www.w3.org/2000/svg">
<rect width="46" height="53.3065" transform="translate(0 -9.6747)" fill="white"/>
<path fill-rule="evenodd" clip-rule="evenodd" d="M25.7304 6.76975L20.7803 10.2065L15.6028 8.48046C15.2414 8.35975 14.998 8.02068 15 7.63974C15.0022 7.25881 15.2484 6.92182 15.6112 6.80532L28.8483 2.54249C29.163 2.44134 29.5083 2.52435 29.7421 2.75808C29.9758 2.99182 30.0588 3.33716 29.9576 3.65183L25.6948 16.8889C25.5783 17.2517 25.2413 17.498 24.8604 17.5001C24.4794 17.5022 24.1404 17.2587 24.0197 16.8973L22.2852 11.6947L25.7304 6.76975Z" fill="black"/>
<path d="M14.51 33.5218V28.5918C14.51 27.9385 14.37 27.4252 14.09 27.0518C13.8167 26.6785 13.4067 26.4918 12.86 26.4918C12.42 26.4918 12.09 26.5985 11.87 26.8118C11.65 27.0252 11.54 27.3018 11.54 27.6418C11.54 27.9018 11.6 28.1218 11.72 28.3018C11.8467 28.4818 12.0367 28.5952 12.29 28.6418C12.3433 28.6618 12.3967 28.6785 12.45 28.6918C12.5033 28.6985 12.5467 28.7018 12.58 28.7018L12.5 29.5218C12.4267 29.5352 12.34 29.5385 12.24 29.5318C12.1467 29.5185 12.0267 29.4985 11.88 29.4718C11.4267 29.3985 11.0767 29.1952 10.83 28.8618C10.5833 28.5285 10.46 28.1118 10.46 27.6118C10.46 27.2118 10.55 26.8585 10.73 26.5518C10.9167 26.2452 11.1867 26.0052 11.54 25.8318C11.9 25.6518 12.34 25.5618 12.86 25.5618C13.74 25.5618 14.42 25.8318 14.9 26.3718C15.3867 26.9118 15.63 27.6518 15.63 28.5918V33.4518L14.51 33.5218ZM17.2684 31.6318V25.6618H18.3884V31.6318H17.2684ZM16.3984 26.5918L16.5184 25.6618H18.0084V26.5918H16.3984ZM24.0031 31.6318V27.6518C24.0031 27.2985 23.9165 27.0352 23.7431 26.8618C23.5765 26.6818 23.3231 26.5918 22.9831 26.5918H20.3231V25.6618H23.0531C23.7331 25.6618 24.2465 25.8285 24.5931 26.1618C24.9465 26.4885 25.1231 26.9752 25.1231 27.6218V31.6318H24.0031ZM19.2031 31.6318L19.3331 30.7018H19.6931C19.8398 30.7018 19.9565 30.6752 20.0431 30.6218C20.1365 30.5618 20.2065 30.4718 20.2531 30.3518C20.2998 30.2318 20.3231 30.0818 20.3231 29.9018V25.9018H21.4431V29.9218C21.4431 30.4752 21.3098 30.8985 21.0431 31.1918C20.7831 31.4852 20.3998 31.6318 19.8931 31.6318H19.2031ZM19.3931 26.5918L19.5131 25.6618H20.9031V26.5918H19.3931ZM26.5805 29.0418V25.6618H27.7005V29.0418H26.5805ZM25.7105 26.5918L25.8305 25.6618H27.2205V26.5918H25.7105ZM31.8069 31.6718C31.1535 31.6718 30.5969 31.5385 30.1369 31.2718C29.6835 31.0052 29.3335 30.6085 29.0869 30.0818C28.8469 29.5552 28.7269 28.9052 28.7269 28.1318V25.6618H29.8369V28.1318C29.8369 28.7252 29.9102 29.2185 30.0569 29.6118C30.2102 30.0052 30.4302 30.2985 30.7169 30.4918C31.0102 30.6852 31.3669 30.7818 31.7869 30.7818H31.8669C32.2935 30.7818 32.6535 30.6852 32.9469 30.4918C33.2402 30.2985 33.4635 30.0085 33.6169 29.6218C33.7702 29.2285 33.8469 28.7352 33.8469 28.1418V25.6618H34.9569V28.1318C34.9569 28.9118 34.8335 29.5652 34.5869 30.0918C34.3469 30.6118 34.0002 31.0052 33.5469 31.2718C33.0935 31.5385 32.5402 31.6718 31.8869 31.6718H31.8069ZM29.5369 29.3018L29.4669 28.5418C29.9069 28.5618 30.2602 28.5018 30.5269 28.3618C30.7935 28.2218 30.9869 28.0085 31.1069 27.7218C31.2269 27.4285 31.2869 27.0685 31.2869 26.6418V25.6618H32.4069V26.5818C32.4069 27.0085 32.3502 27.3952 32.2369 27.7418C32.1302 28.0818 31.9602 28.3718 31.7269 28.6118C31.5002 28.8452 31.2035 29.0218 30.8369 29.1418C30.4769 29.2618 30.0435 29.3152 29.5369 29.3018Z" fill="#5F6062"/>
</svg>
