<svg width="20" height="20" viewBox="0 0 20 20" fill="none" xmlns="http://www.w3.org/2000/svg">
<path d="M17.2727 0H2.72727C1.22104 0 0 1.22104 0 2.72727V17.2727C0 18.779 1.22104 20 2.72727 20H17.2727C18.779 20 20 18.779 20 17.2727V2.72727C20 1.22104 18.779 0 17.2727 0Z" fill="#0077B5"/>
<path d="M7.20455 5.45455C7.20455 5.79167 7.10458 6.12123 6.91728 6.40154C6.72998 6.68185 6.46377 6.90033 6.1523 7.02934C5.84084 7.15835 5.49811 7.19211 5.16746 7.12634C4.83681 7.06057 4.53309 6.89823 4.29471 6.65984C4.05632 6.42146 3.89398 6.11774 3.82821 5.78709C3.76244 5.45644 3.79619 5.11371 3.92521 4.80224C4.05422 4.49078 4.2727 4.22457 4.55301 4.03727C4.83332 3.84997 5.16288 3.75 5.5 3.75C5.95208 3.75 6.38563 3.92959 6.7053 4.24925C7.02496 4.56891 7.20455 5.00247 7.20455 5.45455Z" fill="white"/>
<path d="M6.81822 8.29545V15.8261C6.81852 15.8817 6.80783 15.9368 6.78678 15.9882C6.76573 16.0396 6.73472 16.0863 6.69554 16.1257C6.65637 16.1651 6.60979 16.1964 6.55849 16.2177C6.50719 16.239 6.45218 16.25 6.39663 16.25H4.60004C4.54448 16.2501 4.48944 16.2393 4.43809 16.2181C4.38673 16.1969 4.34007 16.1658 4.30079 16.1265C4.2615 16.0872 4.23037 16.0406 4.20918 15.9892C4.18799 15.9379 4.17716 15.8828 4.17731 15.8273V8.29545C4.17731 8.18334 4.22185 8.07582 4.30112 7.99654C4.3804 7.91726 4.48792 7.87273 4.60004 7.87273H6.39663C6.50854 7.87303 6.61578 7.9177 6.69481 7.99694C6.77384 8.07619 6.81822 8.18354 6.81822 8.29545Z" fill="white"/>
<path d="M16.2091 12.2159V15.8614C16.2093 15.9124 16.1993 15.963 16.1799 16.0103C16.1604 16.0575 16.1318 16.1004 16.0956 16.1365C16.0595 16.1726 16.0166 16.2012 15.9694 16.2207C15.9222 16.2402 15.8716 16.2501 15.8205 16.25H13.8887C13.8376 16.2501 13.787 16.2402 13.7398 16.2207C13.6926 16.2012 13.6497 16.1726 13.6135 16.1365C13.5774 16.1004 13.5488 16.0575 13.5293 16.0103C13.5098 15.963 13.4999 15.9124 13.5 15.8614V12.3284C13.5 11.8011 13.6546 10.0193 12.1216 10.0193C10.9341 10.0193 10.6921 11.2386 10.6444 11.7864V15.8614C10.6444 15.9635 10.6042 16.0615 10.5325 16.1342C10.4609 16.2069 10.3635 16.2485 10.2614 16.25H8.3955C8.34451 16.25 8.29403 16.2399 8.24694 16.2204C8.19986 16.2008 8.15709 16.1722 8.12109 16.1361C8.08509 16.1 8.05657 16.0571 8.03717 16.01C8.01776 15.9629 8.00785 15.9123 8.008 15.8614V8.2625C8.00785 8.21152 8.01776 8.16101 8.03717 8.11386C8.05657 8.06672 8.08509 8.02386 8.12109 7.98776C8.15709 7.95166 8.19986 7.92301 8.24694 7.90347C8.29403 7.88392 8.34451 7.87386 8.3955 7.87386H10.2614C10.3645 7.87386 10.4633 7.91481 10.5362 7.98769C10.6091 8.06058 10.65 8.15943 10.65 8.2625V8.91932C11.091 8.25795 11.7444 7.74773 13.1387 7.74773C16.2273 7.74773 16.2091 10.6318 16.2091 12.2159Z" fill="white"/>
</svg>
