<svg width="46" height="34" viewBox="0 0 46 34" fill="none" xmlns="http://www.w3.org/2000/svg">
<rect width="45" height="49" transform="translate(0.260712 -7.52142)" fill="white"/>
<path d="M22.6393 16.6091C22.539 16.6091 22.4384 16.5843 22.3472 16.5342C22.1531 16.4276 22.0324 16.2237 22.0324 16.0021V14.7882C22.0324 14.4535 21.7601 14.1813 21.4254 14.1813H20.4542C17.442 14.1813 14.9914 11.7306 14.9914 8.7184C14.9914 5.70619 17.442 3.25555 20.4542 3.25555H25.0673C28.0795 3.25555 30.5301 5.70619 30.5301 8.7184C30.5301 8.7435 30.53 8.76848 30.5297 8.7934C30.5154 10.2648 30.0684 11.3676 29.0804 12.3691C28.1764 13.2856 26.8554 14.1003 25.027 15.228C24.4113 15.6078 23.7134 16.0382 22.9652 16.5143C22.866 16.5774 22.7528 16.6091 22.6393 16.6091ZM20.4542 4.46952C18.1114 4.46952 16.2053 6.37557 16.2053 8.7184C16.2053 11.0612 18.1114 12.9673 20.4542 12.9673H21.4254C22.4295 12.9673 23.2463 13.7842 23.2463 14.7882V14.9028C23.6511 14.6504 24.0341 14.4141 24.3897 14.1948C26.1459 13.1116 27.4148 12.329 28.2162 11.5166C28.9859 10.7364 29.3045 9.94397 29.3158 8.78162C29.316 8.76065 29.3162 8.73956 29.3162 8.7184C29.3162 6.37557 27.4101 4.46952 25.0673 4.46952H20.4542Z" fill="black"/>
<path d="M25.0673 8.11142H20.4542C20.119 8.11142 19.8472 7.83967 19.8472 7.50444C19.8472 7.1692 20.119 6.89745 20.4542 6.89745H25.0673C25.4025 6.89745 25.6743 7.1692 25.6743 7.50444C25.6743 7.83967 25.4025 8.11142 25.0673 8.11142Z" fill="black"/>
<path d="M25.0673 10.5394H20.4542C20.119 10.5394 19.8472 10.2676 19.8472 9.93237C19.8472 9.59713 20.119 9.32539 20.4542 9.32539H25.0673C25.4025 9.32539 25.6743 9.59713 25.6743 9.93237C25.6743 10.2676 25.4025 10.5394 25.0673 10.5394Z" fill="black"/>
<path d="M14.8407 29.4786V25.4986C14.8407 25.1452 14.754 24.8819 14.5807 24.7086C14.414 24.5286 14.1607 24.4386 13.8207 24.4386H10.7907L10.9107 23.5086H13.8907C14.5707 23.5086 15.084 23.6752 15.4307 24.0086C15.784 24.3352 15.9607 24.8219 15.9607 25.4686V29.4786H14.8407ZM10.9307 29.4786V26.1486L12.0507 26.0686V29.4786H10.9307ZM19.9477 29.4786V25.4986C19.9477 25.1452 19.861 24.8819 19.6877 24.7086C19.5143 24.5286 19.2577 24.4386 18.9177 24.4386H17.0177L17.1377 23.5086H18.9877C19.6743 23.5086 20.191 23.6752 20.5377 24.0086C20.891 24.3352 21.0677 24.8219 21.0677 25.4686V28.6586C21.0343 28.7986 20.971 28.9386 20.8777 29.0786C20.7843 29.2119 20.6877 29.3452 20.5877 29.4786H19.9477ZM16.7177 29.4786V28.5486H21.8077L21.6777 29.4786H16.7177ZM23.0006 29.4786V23.5086H24.1206V29.4786H23.0006ZM22.1306 24.4386L22.2506 23.5086H23.7406V24.4386H22.1306ZM27.2253 29.5286L26.8753 28.2086H26.7953C26.682 28.4219 26.562 28.6086 26.4353 28.7686C26.3153 28.9286 26.182 29.0619 26.0353 29.1686C25.8953 29.2686 25.7387 29.3452 25.5653 29.3986C25.3987 29.4519 25.2087 29.4786 24.9953 29.4786H24.8153V28.5286H24.9753C25.1753 28.5286 25.3653 28.4952 25.5453 28.4286C25.732 28.3552 25.902 28.2619 26.0553 28.1486C26.2087 28.0352 26.342 27.9186 26.4553 27.7986C26.5687 27.6719 26.652 27.5519 26.7053 27.4386V25.1486C26.7053 24.8886 26.6453 24.7052 26.5253 24.5986C26.412 24.4919 26.2187 24.4386 25.9453 24.4386H25.3253L25.4553 23.5086H26.2353C26.5953 23.5086 26.892 23.5686 27.1253 23.6886C27.3587 23.8019 27.532 23.9719 27.6453 24.1986C27.7653 24.4252 27.8253 24.7052 27.8253 25.0386V27.8186L28.2253 29.3286L27.2253 29.5286ZM33.3025 29.4786V25.4986C33.3025 25.1452 33.2158 24.8819 33.0425 24.7086C32.8758 24.5286 32.6225 24.4386 32.2825 24.4386H29.6225V23.5086H32.3525C33.0325 23.5086 33.5458 23.6752 33.8925 24.0086C34.2458 24.3352 34.4225 24.8219 34.4225 25.4686V29.4786H33.3025ZM28.5025 29.4786L28.6325 28.5486H28.9925C29.1392 28.5486 29.2558 28.5219 29.3425 28.4686C29.4358 28.4086 29.5058 28.3186 29.5525 28.1986C29.5992 28.0786 29.6225 27.9286 29.6225 27.7486V23.7486H30.7425V27.7686C30.7425 28.3219 30.6092 28.7452 30.3425 29.0386C30.0825 29.3319 29.6992 29.4786 29.1925 29.4786H28.5025ZM28.6925 24.4386L28.8125 23.5086H30.2025V24.4386H28.6925Z" fill="#5F6062"/>
</svg>
