<svg width="50" height="34" viewBox="0 0 50 34" fill="none" xmlns="http://www.w3.org/2000/svg">
<rect width="49" height="49" transform="translate(0.630356 -7.52142)" fill="white"/>
<path d="M32.0147 8.85378C31.853 8.69215 31.6337 8.60136 31.4051 8.60136C31.1764 8.60136 30.9572 8.69215 30.7954 8.85378L30.0704 9.57881V5.16377C30.0704 4.93504 29.9795 4.71568 29.8178 4.55395C29.6561 4.39221 29.4367 4.30135 29.208 4.30135H22.1824C21.9537 4.30135 21.7344 4.39221 21.5726 4.55395C21.4109 4.71568 21.32 4.93504 21.32 5.16377C21.32 5.3925 21.4109 5.61187 21.5726 5.7736C21.7344 5.93534 21.9537 6.0262 22.1824 6.0262H28.3452V9.57881L27.6202 8.85378C27.5409 8.77048 27.4457 8.7039 27.3402 8.65795C27.2348 8.61199 27.1212 8.58759 27.0062 8.58619C26.8912 8.58479 26.7771 8.60641 26.6705 8.64978C26.564 8.69315 26.4672 8.75739 26.3859 8.83873C26.3045 8.92006 26.2403 9.01685 26.1969 9.12338C26.1535 9.22992 26.1319 9.34405 26.1333 9.45907C26.1347 9.57409 26.1591 9.68766 26.2051 9.79311C26.251 9.89856 26.3176 9.99374 26.4009 10.0731L28.5977 12.2696C28.7594 12.4312 28.9787 12.522 29.2074 12.522C29.436 12.522 29.6553 12.4312 29.817 12.2696L32.0141 10.0725C32.1757 9.91086 32.2664 9.69175 32.2665 9.46325C32.2667 9.23476 32.1761 9.01555 32.0147 8.85378Z" fill="black"/>
<path d="M27.7799 14.2306H21.6171V10.678L22.3421 11.403C22.5051 11.5583 22.7224 11.6436 22.9474 11.6409C23.1725 11.6381 23.3876 11.5475 23.5468 11.3883C23.7059 11.2292 23.7965 11.0141 23.7993 10.789C23.802 10.5639 23.7167 10.3467 23.5614 10.1837L21.3646 7.98721C21.2029 7.82559 20.9836 7.73479 20.755 7.73479C20.5263 7.73479 20.3071 7.82559 20.1453 7.98721L17.9476 10.1834C17.7924 10.3464 17.707 10.5637 17.7098 10.7887C17.7125 11.0138 17.8032 11.2289 17.9623 11.388C18.1215 11.5472 18.3366 11.6378 18.5616 11.6406C18.7867 11.6433 19.0039 11.558 19.1669 11.4027L19.892 10.6777V15.093C19.892 15.3218 19.9828 15.5411 20.1446 15.7029C20.3063 15.8646 20.5257 15.9555 20.7544 15.9555H27.7799C28.0086 15.9555 28.228 15.8646 28.3897 15.7029C28.5515 15.5411 28.6423 15.3218 28.6423 15.093C28.6423 14.8643 28.5515 14.6449 28.3897 14.4832C28.228 14.3215 28.0086 14.2306 27.7799 14.2306Z" fill="black"/>
<path d="M13.9804 24.0186C14.0804 24.0186 14.187 24.0252 14.3004 24.0386C14.4204 24.0452 14.5237 24.0586 14.6104 24.0786L14.5004 24.8886C14.4137 24.8686 14.317 24.8519 14.2104 24.8386C14.1104 24.8252 14.0137 24.8186 13.9204 24.8186C13.7137 24.8186 13.517 24.8619 13.3304 24.9486C13.1437 25.0352 12.977 25.1586 12.8304 25.3186C12.6837 25.4719 12.567 25.6586 12.4804 25.8786C12.4004 26.0986 12.3604 26.3452 12.3604 26.6186V29.4786H11.4804V24.1186H12.2004L12.3004 25.0986H12.3404C12.4537 24.8986 12.5904 24.7186 12.7504 24.5586C12.9104 24.3919 13.0937 24.2619 13.3004 24.1686C13.507 24.0686 13.7337 24.0186 13.9804 24.0186ZM17.1859 24.0186C17.6459 24.0186 18.0392 24.1186 18.3659 24.3186C18.6992 24.5186 18.9526 24.8019 19.1259 25.1686C19.3059 25.5286 19.3959 25.9519 19.3959 26.4386V26.9686H15.7259C15.7392 27.5752 15.8926 28.0386 16.1859 28.3586C16.4859 28.6719 16.9026 28.8286 17.4359 28.8286C17.7759 28.8286 18.0759 28.7986 18.3359 28.7386C18.6026 28.6719 18.8759 28.5786 19.1559 28.4586V29.2286C18.8826 29.3486 18.6126 29.4352 18.3459 29.4886C18.0792 29.5486 17.7626 29.5786 17.3959 29.5786C16.8892 29.5786 16.4392 29.4752 16.0459 29.2686C15.6592 29.0619 15.3559 28.7552 15.1359 28.3486C14.9226 27.9352 14.8159 27.4319 14.8159 26.8386C14.8159 26.2519 14.9126 25.7486 15.1059 25.3286C15.3059 24.9086 15.5826 24.5852 15.9359 24.3586C16.2959 24.1319 16.7126 24.0186 17.1859 24.0186ZM17.1759 24.7386C16.7559 24.7386 16.4226 24.8752 16.1759 25.1486C15.9359 25.4152 15.7926 25.7886 15.7459 26.2686H18.4759C18.4759 25.9619 18.4292 25.6952 18.3359 25.4686C18.2426 25.2419 18.0992 25.0652 17.9059 24.9386C17.7192 24.8052 17.4759 24.7386 17.1759 24.7386ZM23.0104 24.0186C23.6704 24.0186 24.2004 24.2486 24.6004 24.7086C25.0071 25.1686 25.2104 25.8619 25.2104 26.7886C25.2104 27.3952 25.1171 27.9086 24.9304 28.3286C24.7504 28.7419 24.4938 29.0552 24.1604 29.2686C23.8338 29.4752 23.4471 29.5786 23.0004 29.5786C22.7271 29.5786 22.4838 29.5419 22.2704 29.4686C22.0571 29.3952 21.8738 29.3019 21.7204 29.1886C21.5738 29.0686 21.4471 28.9386 21.3404 28.7986H21.2804C21.2938 28.9119 21.3071 29.0552 21.3204 29.2286C21.3338 29.4019 21.3404 29.5519 21.3404 29.6786V31.8786H20.4604V24.1186H21.1804L21.3004 24.8486H21.3404C21.4471 24.6952 21.5738 24.5552 21.7204 24.4286C21.8738 24.3019 22.0538 24.2019 22.2604 24.1286C22.4738 24.0552 22.7238 24.0186 23.0104 24.0186ZM22.8504 24.7586C22.4904 24.7586 22.2004 24.8286 21.9804 24.9686C21.7604 25.1019 21.6004 25.3052 21.5004 25.5786C21.4004 25.8519 21.3471 26.1986 21.3404 26.6186V26.7886C21.3404 27.2286 21.3871 27.6019 21.4804 27.9086C21.5738 28.2152 21.7304 28.4486 21.9504 28.6086C22.1771 28.7686 22.4838 28.8486 22.8704 28.8486C23.1971 28.8486 23.4638 28.7586 23.6704 28.5786C23.8838 28.3986 24.0404 28.1552 24.1404 27.8486C24.2471 27.5352 24.3004 27.1786 24.3004 26.7786C24.3004 26.1652 24.1804 25.6752 23.9404 25.3086C23.7071 24.9419 23.3438 24.7586 22.8504 24.7586ZM30.9728 26.7886C30.9728 27.2352 30.9128 27.6319 30.7928 27.9786C30.6794 28.3186 30.5128 28.6086 30.2928 28.8486C30.0794 29.0886 29.8161 29.2719 29.5028 29.3986C29.1961 29.5186 28.8528 29.5786 28.4728 29.5786C28.1194 29.5786 27.7928 29.5186 27.4928 29.3986C27.1928 29.2719 26.9328 29.0886 26.7128 28.8486C26.4928 28.6086 26.3194 28.3186 26.1928 27.9786C26.0728 27.6319 26.0128 27.2352 26.0128 26.7886C26.0128 26.1952 26.1128 25.6952 26.3128 25.2886C26.5128 24.8752 26.7994 24.5619 27.1728 24.3486C27.5461 24.1286 27.9894 24.0186 28.5028 24.0186C28.9894 24.0186 29.4161 24.1286 29.7828 24.3486C30.1561 24.5619 30.4461 24.8752 30.6528 25.2886C30.8661 25.6952 30.9728 26.1952 30.9728 26.7886ZM26.9228 26.7886C26.9228 27.2086 26.9761 27.5752 27.0828 27.8886C27.1961 28.1952 27.3694 28.4319 27.6028 28.5986C27.8361 28.7652 28.1328 28.8486 28.4928 28.8486C28.8528 28.8486 29.1494 28.7652 29.3828 28.5986C29.6161 28.4319 29.7861 28.1952 29.8928 27.8886C30.0061 27.5752 30.0628 27.2086 30.0628 26.7886C30.0628 26.3619 30.0061 25.9986 29.8928 25.6986C29.7794 25.3986 29.6061 25.1686 29.3728 25.0086C29.1461 24.8419 28.8494 24.7586 28.4828 24.7586C27.9361 24.7586 27.5394 24.9386 27.2928 25.2986C27.0461 25.6586 26.9228 26.1552 26.9228 26.7886ZM35.5575 27.9986C35.5575 28.3452 35.4708 28.6352 35.2975 28.8686C35.1241 29.1019 34.8775 29.2786 34.5575 29.3986C34.2375 29.5186 33.8575 29.5786 33.4175 29.5786C33.0441 29.5786 32.7208 29.5486 32.4475 29.4886C32.1808 29.4286 31.9441 29.3452 31.7375 29.2386V28.4386C31.9508 28.5452 32.2075 28.6452 32.5075 28.7386C32.8141 28.8252 33.1241 28.8686 33.4375 28.8686C33.8841 28.8686 34.2075 28.7986 34.4075 28.6586C34.6075 28.5119 34.7075 28.3186 34.7075 28.0786C34.7075 27.9452 34.6708 27.8252 34.5975 27.7186C34.5241 27.6119 34.3908 27.5052 34.1975 27.3986C34.0108 27.2919 33.7408 27.1719 33.3875 27.0386C33.0408 26.9052 32.7441 26.7719 32.4975 26.6386C32.2508 26.5052 32.0608 26.3452 31.9275 26.1586C31.7941 25.9719 31.7275 25.7319 31.7275 25.4386C31.7275 24.9852 31.9108 24.6352 32.2775 24.3886C32.6508 24.1419 33.1375 24.0186 33.7375 24.0186C34.0641 24.0186 34.3675 24.0519 34.6475 24.1186C34.9341 24.1786 35.2008 24.2652 35.4475 24.3786L35.1475 25.0786C35.0008 25.0119 34.8441 24.9552 34.6775 24.9086C34.5175 24.8552 34.3541 24.8152 34.1875 24.7886C34.0208 24.7552 33.8508 24.7386 33.6775 24.7386C33.3175 24.7386 33.0408 24.7986 32.8475 24.9186C32.6608 25.0319 32.5675 25.1886 32.5675 25.3886C32.5675 25.5352 32.6108 25.6619 32.6975 25.7686C32.7841 25.8686 32.9275 25.9686 33.1275 26.0686C33.3341 26.1619 33.6075 26.2752 33.9475 26.4086C34.2875 26.5352 34.5775 26.6652 34.8175 26.7986C35.0575 26.9319 35.2408 27.0952 35.3675 27.2886C35.4941 27.4752 35.5575 27.7119 35.5575 27.9986ZM38.3426 28.8586C38.476 28.8586 38.6126 28.8486 38.7526 28.8286C38.8926 28.8019 39.006 28.7752 39.0926 28.7486V29.4186C38.9993 29.4652 38.866 29.5019 38.6926 29.5286C38.5193 29.5619 38.3526 29.5786 38.1926 29.5786C37.9126 29.5786 37.6526 29.5319 37.4126 29.4386C37.1793 29.3386 36.9893 29.1686 36.8426 28.9286C36.696 28.6886 36.6226 28.3519 36.6226 27.9186V24.7986H35.8626V24.3786L36.6326 24.0286L36.9826 22.8886H37.5026V24.1186H39.0526V24.7986H37.5026V27.8986C37.5026 28.2252 37.5793 28.4686 37.7326 28.6286C37.8926 28.7819 38.096 28.8586 38.3426 28.8586Z" fill="#5F6062"/>
</svg>
