<svg width="38" height="34" viewBox="0 0 38 34" fill="none" xmlns="http://www.w3.org/2000/svg">
<rect width="37" height="49" transform="translate(0.891068 -7.52142)" fill="white"/>
<path d="M25.2837 8.99304C24.8724 8.48027 24.2015 8.16172 23.5327 8.16172H21.5327C21.8816 7.53433 22.1363 6.9451 22.2926 6.40267C22.5473 5.5191 22.5419 4.75382 22.2765 4.12796C21.9215 3.29083 21.1365 2.74634 19.9434 2.50961C19.813 2.48378 19.6774 2.51117 19.5672 2.58583C19.457 2.66048 19.3812 2.77616 19.3569 2.90702C18.8413 5.68093 17.8079 6.56316 16.8961 7.34157C16.3957 7.76876 15.8805 8.20859 15.5199 8.89635H14.0524C13.412 8.89635 12.891 9.41739 12.891 10.0578V15.4142C12.891 16.0546 13.412 16.5757 14.0524 16.5757H15.3811C15.771 17.1458 16.4249 17.5001 17.1241 17.5001H22.3951C23.4147 17.5001 24.2185 16.7332 24.4928 15.4986L25.6304 10.3793C25.7375 9.89752 25.6144 9.40519 25.2837 8.99304ZM24.6583 10.1633L23.5206 15.2826C23.439 15.6499 23.166 16.5043 22.3951 16.5043H17.1241C16.6972 16.5043 16.302 16.253 16.1171 15.864C16.0346 15.6905 15.8596 15.5799 15.6674 15.5799H14.0524C13.9627 15.5799 13.8868 15.504 13.8868 15.4143V10.0578C13.8868 9.96807 13.9627 9.89223 14.0524 9.89223H15.8368C16.0387 9.89223 16.2207 9.77024 16.2974 9.58339C16.5636 8.9349 16.9957 8.56603 17.5428 8.09898C18.4717 7.30594 19.6146 6.33041 20.2289 3.61102C20.8061 3.80269 21.1856 4.10624 21.3597 4.51675C21.7107 5.34443 21.3109 6.71988 20.234 8.38977C20.1352 8.54297 20.128 8.73791 20.2152 8.89793C20.3024 9.05795 20.4701 9.15757 20.6525 9.15757H23.5327C23.8954 9.15757 24.2869 9.34186 24.507 9.61616C24.6487 9.79295 24.6996 9.977 24.6583 10.1633Z" fill="black"/>
<path d="M14.1411 29.4786L15.6711 24.4286H11.4811L11.6011 23.5086H16.9411L16.8511 24.1986L15.2611 29.4786H14.1411ZM11.7511 31.3686V25.8186L12.8711 25.7486V31.2986L11.7511 31.3686ZM18.1985 26.8886V23.5086H19.3185V26.8886H18.1985ZM17.3285 24.4386L17.4485 23.5086H18.8385V24.4386H17.3285ZM20.9649 26.8886V23.5086H22.0849V26.8886H20.9649ZM20.0949 24.4386L20.2149 23.5086H21.6049V24.4386H20.0949ZM23.9113 23.5086H27.4813L27.3813 24.1986L25.5913 29.4786H24.4313L26.1713 24.4386H22.7913V21.9986L23.9113 21.8786V23.5086Z" fill="#5F6062"/>
</svg>
