<svg id="fi_5251798" enable-background="new 0 0 611.403 611.403" height="512" viewBox="0 0 611.403 611.403" width="512" xmlns="http://www.w3.org/2000/svg"><g><path d="m509.503 611.403c56.251-.065 101.836-45.649 101.901-101.901v-407.601c-.065-56.252-45.65-101.836-101.901-101.901h-407.602c-56.252.065-101.836 45.649-101.901 101.901v407.602c.065 56.251 45.649 101.836 101.901 101.901h407.602zm-458.553-101.9v-407.602c.029-28.127 22.823-50.921 50.95-50.95h407.602c28.127.029 50.921 22.823 50.95 50.95v407.602c-.029 28.127-22.823 50.921-50.95 50.95h-407.601c-28.127-.029-50.921-22.823-50.951-50.95z"></path><path d="m203.801 407.602v-101.9c0-14.07-11.406-25.475-25.475-25.475s-25.475 11.406-25.475 25.475v101.901c0 14.07 11.406 25.475 25.475 25.475s25.475-11.406 25.475-25.476z"></path><path d="m331.177 407.602v-229.276c0-14.07-11.406-25.475-25.475-25.475-14.07 0-25.475 11.406-25.475 25.475v229.276c0 14.07 11.406 25.475 25.475 25.475s25.475-11.405 25.475-25.475z"></path><path d="m458.553 407.602v-152.851c0-14.07-11.406-25.475-25.475-25.475s-25.475 11.406-25.475 25.475v152.851c0 14.07 11.406 25.475 25.475 25.475s25.475-11.405 25.475-25.475z"></path></g></svg>