<svg id="fi_4725678" enable-background="new 0 0 512 512" height="512" viewBox="0 0 512 512" width="512" xmlns="http://www.w3.org/2000/svg"><g><g><path d="m80 256h272v-160h-272zm40-120h192v80h-192zm-40 280h272v-40h-272zm0-80h272v-40h-272zm372-40h-20v-220c0-33.084-26.916-60-60-60h-312c-33.084 0-60 26.916-60 60v360c0 33.084 26.916 60 60 60h392.003c33.083-.002 59.997-26.917 59.997-60v-80c0-33.084-26.916-60-60-60zm-392 160c-11.028 0-20-8.972-20-20v-360c0-11.028 8.972-20 20-20h312c11.028 0 20 8.972 20 20v360c0 7.011 1.22 13.74 3.44 20zm412-20c0 11.028-8.972 20-20 20s-20-8.972-20-20v-100h20c11.028 0 20 8.972 20 20z"></path></g></g></svg>