<svg id="fi_2658128" enable-background="new 0 0 512 512" height="512" viewBox="0 0 512 512" width="512" xmlns="http://www.w3.org/2000/svg"><path d="m139 512h-19c-66.168 0-120-53.832-120-120v-272c0-66.168 53.832-120 120-120h272c66.168 0 120 53.832 120 120v92c0 11.046-8.954 20-20 20s-20-8.954-20-20v-92c0-44.112-35.888-80-80-80h-272c-44.112 0-80 35.888-80 80v272c0 44.112 35.888 80 80 80h19c11.046 0 20 8.954 20 20s-8.954 20-20 20zm293-383c0-11.046-8.954-20-20-20h-312c-11.046 0-20 8.954-20 20s8.954 20 20 20h312c11.046 0 20-8.954 20-20zm80 283v-40c0-55.141-44.86-100-100-100h-13c-40.28 0-76.023 24.015-91.688 60h-86.991c-26.618 0-52.754 10.773-71.707 29.558-8.17 8.098-12.669 18.908-12.669 30.442s4.5 22.345 12.669 30.441c18.953 18.786 45.089 29.559 71.707 29.559h86.991c15.665 35.985 51.408 60 91.688 60h13c55.14 0 100-44.859 100-100zm-190.479-40c9.125 0 17.094-6.177 19.369-15.015 6.817-26.486 30.713-44.985 58.11-44.985h13c33.084 0 60 26.916 60 60v40c0 33.084-26.916 60-60 60h-13c-27.397 0-51.293-18.499-58.111-44.985-2.274-8.838-10.243-15.015-19.368-15.015h-101.2c-16.154 0-32.027-6.55-43.549-17.97-.684-.677-.827-1.478-.827-2.03s.143-1.354.827-2.031c11.521-11.419 27.395-17.969 43.549-17.969zm95.479-5c-13.807 0-25 11.193-25 25s11.193 25 25 25 25-11.193 25-25-11.193-25-25-25z"></path></svg>