<svg xmlns="http://www.w3.org/2000/svg" version="1.0" width="344.000000pt" height="343.000000pt" viewBox="0 0 344.000000 343.000000" preserveAspectRatio="xMidYMid meet">

<g transform="translate(0.000000,343.000000) scale(0.100000,-0.100000)" fill="#000000" stroke="none">
<path d="M1465 3420 c-201 -32 -315 -68 -488 -155 -289 -146 -503 -332 -677 -591 -144 -213 -221 -405 -271 -674 -17 -88 -23 -405 -9 -485 40 -247 81 -378 171 -555 98 -194 175 -298 338 -460 129 -128 281 -235 456 -321 178 -88 260 -113 519 -159 77 -13 350 -13 435 1 284 45 444 101 656 227 341 203 640 570 753 922 77 240 96 365 89 580 -7 187 -13 232 -55 415 -41 177 -171 439 -301 605 -54 70 -219 236 -291 294 -189 152 -435 275 -650 326 -19 4 -57 14 -85 21 -58 14 -512 22 -590 9z m530 -216 c159 -27 260 -62 440 -150 193 -94 426 -306 550 -499 99 -155 184 -368 216 -540 13 -67 32 -261 31 -305 -2 -60 -21 -243 -31 -290 -59 -290 -210 -571 -413 -766 -155 -151 -289 -238 -503 -329 -139 -59 -218 -78 -415 -97 -135 -13 -147 -13 -265 -4 -85 6 -118 11 -252 37 -126 24 -396 150 -518 241 -104 78 -249 222 -319 316 -216 290 -326 684 -291 1047 20 203 63 353 156 543 98 199 232 360 429 517 109 86 191 131 380 207 225 90 531 118 805 72z"/>
<path d="M943 2738 c-6 -7 -20 -35 -33 -61 -22 -48 -22 -49 -4 -67 11 -10 64 -41 119 -70 55 -29 124 -66 153 -82 124 -69 226 -118 242 -118 19 0 37 18 69 72 26 43 19 67 -26 91 -16 8 -68 36 -118 62 -49 26 -142 74 -205 107 -63 33 -119 64 -124 69 -14 13 -62 11 -73 -3z"/>
<path d="M2435 2741 c-6 -5 -66 -38 -135 -74 -109 -56 -211 -110 -315 -167 -41 -23 -44 -63 -7 -115 15 -22 37 -41 48 -43 18 -3 67 20 239 113 39 20 113 60 165 87 52 28 104 58 114 68 19 18 18 20 -10 77 -25 49 -33 58 -59 61 -17 2 -35 -1 -40 -7z"/>
<path d="M1080 2273 c-47 -19 -104 -70 -130 -116 -50 -87 -37 -173 38 -250 51 -53 85 -67 157 -67 76 0 111 16 168 80 33 37 46 60 50 93 14 98 -19 173 -100 228 -39 27 -59 34 -108 36 -33 1 -67 0 -75 -4z"/>
<path d="M2240 2273 c-8 -3 -34 -19 -58 -35 -75 -52 -108 -129 -95 -225 7 -50 71 -130 125 -158 38 -18 149 -20 181 -3 40 23 98 82 118 120 23 45 25 112 4 162 -19 45 -79 106 -127 129 -34 16 -116 22 -148 10z"/>
<path d="M1575 1408 c-123 -23 -211 -51 -300 -95 -179 -88 -292 -174 -393 -296 -63 -75 -64 -78 -48 -102 9 -13 36 -36 61 -51 l45 -26 103 105 c139 142 214 190 382 245 115 38 170 47 300 47 282 0 509 -101 704 -312 74 -81 79 -85 102 -73 50 26 89 62 89 82 0 38 -121 171 -235 258 -54 41 -128 84 -215 126 -186 88 -421 125 -595 92z"/>
</g>
</svg>