<svg xmlns="http://www.w3.org/2000/svg" version="1.0" width="344.000000pt" height="343.000000pt" viewBox="0 0 344.000000 343.000000" preserveAspectRatio="xMidYMid meet">

<g transform="translate(0.000000,343.000000) scale(0.100000,-0.100000)" fill="#000000" stroke="none">
<path d="M1549 3425 c-4 -3 -38 -10 -75 -15 -86 -12 -158 -25 -204 -39 -19 -5 -51 -14 -70 -19 -108 -29 -344 -149 -475 -242 -108 -77 -300 -266 -377 -370 -189 -257 -274 -463 -338 -824 -13 -77 -13 -290 1 -391 59 -435 239 -782 559 -1080 116 -108 214 -176 380 -263 168 -88 317 -134 551 -172 85 -13 358 -13 435 0 220 39 284 56 419 110 378 150 717 464 899 833 94 191 140 332 169 522 13 90 16 339 4 430 -40 311 -153 588 -346 850 -64 86 -265 284 -341 334 -36 24 -74 52 -85 62 -46 41 -329 178 -415 201 -19 5 -51 14 -70 19 -37 11 -95 23 -195 40 -70 12 -417 24 -426 14z m466 -236 c148 -29 163 -33 250 -68 209 -85 343 -171 504 -326 175 -168 291 -349 366 -570 49 -142 57 -180 80 -380 20 -169 9 -319 -36 -500 -52 -205 -140 -394 -255 -545 -61 -81 -218 -234 -307 -301 -130 -96 -400 -223 -529 -248 -136 -26 -168 -31 -253 -37 -115 -8 -118 -8 -260 5 -221 20 -283 36 -485 126 -183 82 -295 161 -450 318 -210 211 -321 425 -399 767 -6 25 -15 106 -22 180 -9 113 -8 157 5 265 8 72 20 148 25 170 6 22 14 58 19 80 15 62 65 192 107 275 97 193 263 389 450 531 82 61 292 170 400 207 111 38 252 66 380 76 96 7 311 -6 410 -25z"/>
<path d="M1055 2253 c-45 -23 -105 -84 -121 -122 -40 -95 -2 -207 92 -272 38 -26 51 -29 116 -29 69 0 76 2 122 38 81 61 116 144 95 227 -14 54 -75 128 -130 155 -47 24 -131 26 -174 3z"/>
<path d="M2214 2251 c-92 -42 -156 -161 -131 -246 18 -65 40 -98 93 -137 47 -36 53 -38 124 -38 65 1 80 4 115 28 22 15 55 49 73 76 28 42 32 57 32 111 0 72 -14 106 -67 157 -70 68 -158 86 -239 49z"/>
<path d="M696 1411 c-16 -17 -15 -21 11 -72 78 -150 192 -288 324 -395 237 -190 572 -279 859 -229 121 21 200 46 310 99 222 106 413 293 530 518 30 57 31 61 14 79 -17 18 -46 19 -1024 19 -971 0 -1008 -1 -1024 -19z m1794 -151 c0 -6 -37 -47 -82 -93 -84 -83 -182 -153 -273 -196 -27 -13 -58 -27 -67 -32 -10 -5 -27 -9 -37 -9 -11 0 -22 -4 -25 -9 -6 -10 -43 -16 -188 -32 -71 -8 -125 -8 -195 0 -146 16 -183 22 -189 32 -3 5 -14 9 -25 9 -10 0 -27 4 -37 9 -9 5 -39 19 -67 32 -121 56 -306 205 -344 277 l-12 22 771 0 c514 0 770 -3 770 -10z"/>
</g>
</svg>