<svg xmlns="http://www.w3.org/2000/svg" version="1.0" width="344.000000pt" height="343.000000pt" viewBox="0 0 344.000000 343.000000" preserveAspectRatio="xMidYMid meet">

<g transform="translate(0.000000,343.000000) scale(0.100000,-0.100000)" fill="#000000" stroke="none">
<path d="M1495 3418 c-27 -5 -75 -14 -105 -19 -250 -47 -501 -160 -720 -327 -310 -236 -551 -611 -631 -982 -25 -116 -31 -167 -36 -335 -5 -172 -2 -213 28 -375 27 -146 80 -294 161 -450 38 -74 77 -144 87 -155 10 -11 39 -51 66 -90 74 -106 263 -289 390 -376 122 -85 333 -193 440 -226 110 -34 146 -42 319 -73 77 -13 350 -13 435 1 250 40 358 73 541 165 481 243 825 687 928 1199 29 140 34 208 28 365 -6 187 -12 233 -54 415 -41 175 -165 427 -296 600 -53 71 -249 265 -321 319 -200 150 -413 255 -625 306 -33 8 -71 15 -206 39 -71 13 -358 12 -429 -1z m490 -224 c158 -27 260 -61 440 -150 195 -95 425 -304 550 -500 100 -157 186 -369 216 -539 10 -52 31 -252 32 -295 2 -101 -20 -262 -54 -390 -71 -269 -206 -500 -398 -683 -163 -155 -279 -230 -496 -322 -139 -59 -218 -78 -415 -97 -197 -19 -311 -10 -534 38 -133 29 -379 145 -501 236 -104 78 -249 222 -321 318 -65 87 -166 277 -204 385 -173 489 -92 1031 213 1435 92 121 285 296 412 372 91 55 286 139 380 163 206 54 463 65 680 29z"/>
<path d="M1070 2263 c-47 -19 -104 -70 -130 -116 -50 -87 -37 -173 38 -250 51 -53 85 -67 157 -67 77 0 111 16 168 80 35 39 46 59 51 98 12 95 -20 168 -101 223 -39 27 -59 34 -108 36 -33 1 -67 0 -75 -4z"/>
<path d="M2230 2263 c-39 -15 -103 -68 -126 -105 -33 -51 -38 -144 -12 -198 17 -36 75 -95 115 -118 31 -17 147 -15 181 2 35 19 96 83 116 123 19 38 21 111 4 150 -21 50 -74 108 -120 131 -44 21 -121 29 -158 15z"/>
<path d="M1089 1171 c-64 -63 -63 -82 4 -145 99 -94 274 -191 392 -218 34 -8 200 -29 230 -29 30 0 196 21 230 29 173 40 445 222 445 298 0 35 -79 114 -113 114 -15 0 -46 -17 -75 -42 -288 -245 -686 -245 -974 0 -27 23 -59 42 -70 42 -12 0 -43 -22 -69 -49z"/>
</g>
</svg>