<svg xmlns="http://www.w3.org/2000/svg" version="1.0" width="344.000000pt" height="343.000000pt" viewBox="0 0 344.000000 343.000000" preserveAspectRatio="xMidYMid meet">

<g transform="translate(0.000000,343.000000) scale(0.100000,-0.100000)" fill="#000000" stroke="none">
<path d="M1549 3425 c-4 -3 -38 -10 -75 -15 -86 -12 -158 -25 -204 -39 -19 -5 -51 -14 -70 -19 -85 -23 -303 -127 -405 -194 -222 -145 -444 -381 -573 -607 -59 -103 -97 -193 -141 -334 -96 -305 -107 -559 -39 -862 40 -177 115 -374 190 -495 192 -314 402 -511 718 -678 168 -88 317 -134 551 -172 85 -13 358 -13 435 0 224 40 283 56 424 112 371 150 703 454 888 815 153 299 219 640 181 942 -41 336 -150 609 -349 876 -51 68 -223 245 -290 297 -162 126 -413 263 -550 300 -19 5 -51 14 -70 19 -37 11 -95 23 -195 40 -70 12 -417 24 -426 14z m446 -231 c235 -42 477 -149 650 -288 241 -193 403 -420 493 -691 76 -229 102 -445 78 -650 -9 -71 -20 -150 -26 -175 -6 -25 -15 -61 -19 -80 -32 -136 -113 -312 -209 -454 -71 -105 -235 -274 -345 -357 -130 -96 -400 -223 -529 -248 -135 -26 -168 -31 -253 -37 -118 -9 -130 -9 -265 4 -219 22 -280 37 -480 127 -181 81 -294 161 -449 315 -208 208 -323 429 -400 770 -6 25 -15 106 -22 180 -9 113 -8 157 5 265 8 72 20 148 25 170 6 22 14 58 19 80 15 62 65 192 107 275 139 278 384 521 660 655 204 100 357 142 570 159 84 6 305 -5 390 -20z"/>
<path d="M2435 2631 c-6 -5 -55 -33 -110 -62 -55 -28 -125 -65 -155 -82 -30 -17 -88 -47 -128 -68 -88 -45 -102 -56 -102 -81 0 -22 55 -107 75 -114 7 -3 43 11 81 32 38 20 101 54 139 74 39 20 106 57 150 80 44 24 98 53 120 65 22 12 41 29 43 38 4 18 -24 83 -46 110 -16 18 -52 23 -67 8z"/>
<path d="M857 2412 c-12 -13 -17 -36 -17 -74 0 -90 -7 -88 302 -88 244 0 266 1 281 18 22 24 23 110 1 140 -15 22 -18 22 -283 22 -247 0 -269 -1 -284 -18z"/>
<path d="M1024 2130 c-23 -16 -56 -51 -73 -77 -26 -38 -31 -56 -31 -103 0 -72 18 -115 67 -162 99 -96 227 -90 320 16 90 103 73 230 -43 318 -47 36 -53 38 -124 38 -67 -1 -80 -4 -116 -30z"/>
<path d="M2176 2122 c-53 -39 -75 -72 -94 -138 -16 -56 6 -131 56 -186 90 -100 218 -104 315 -10 49 48 67 90 67 162 0 49 -5 65 -33 106 -19 27 -51 61 -73 76 -34 24 -49 27 -114 28 -71 0 -77 -2 -124 -38z"/>
<path d="M1212 1157 c-17 -18 -22 -36 -22 -74 0 -88 -34 -83 536 -83 376 0 503 3 512 12 7 7 12 39 12 74 0 100 36 94 -530 94 l-487 0 -21 -23z"/>
</g>
</svg>