<svg xmlns="http://www.w3.org/2000/svg" version="1.0" width="344.000000pt" height="343.000000pt" viewBox="0 0 344.000000 343.000000" preserveAspectRatio="xMidYMid meet">

<g transform="translate(0.000000,343.000000) scale(0.100000,-0.100000)" fill="#000000" stroke="none">
<path d="M1515 3414 c-118 -14 -189 -26 -245 -43 -19 -5 -51 -14 -70 -19 -113 -30 -362 -159 -486 -250 -232 -172 -454 -442 -559 -680 -38 -88 -104 -288 -126 -387 -10 -43 -14 -136 -14 -325 1 -257 1 -268 28 -370 70 -265 131 -401 273 -610 221 -324 619 -599 984 -680 30 -7 67 -16 82 -21 15 -4 99 -13 186 -20 164 -13 381 -3 490 22 100 23 119 28 167 42 150 44 346 144 495 251 102 73 297 260 351 336 192 268 271 441 340 745 19 82 20 539 1 610 -7 28 -20 77 -29 110 -74 296 -222 559 -436 778 -123 125 -158 155 -292 244 -123 83 -315 178 -410 204 -16 4 -48 13 -70 19 -63 18 -131 30 -260 45 -145 17 -254 17 -400 -1z m480 -220 c232 -41 483 -152 650 -287 350 -285 528 -623 575 -1092 9 -89 8 -136 -5 -245 -8 -74 -20 -155 -25 -180 -6 -25 -15 -61 -19 -80 -86 -366 -394 -751 -741 -925 -121 -61 -275 -121 -342 -134 -135 -26 -168 -31 -253 -37 -118 -9 -130 -9 -265 4 -153 15 -256 35 -335 65 -78 29 -261 115 -314 146 -115 69 -312 248 -403 368 -107 142 -221 374 -249 508 -4 22 -13 60 -19 85 -6 25 -18 112 -27 194 -15 137 -15 159 0 285 9 75 21 154 26 176 6 22 14 58 19 80 24 101 96 266 170 390 121 201 351 416 560 523 107 56 238 110 292 123 209 48 315 59 495 52 72 -2 166 -11 210 -19z"/>
<path d="M902 2447 c-12 -13 -22 -27 -22 -31 0 -4 -9 -21 -21 -37 -11 -16 -18 -33 -14 -39 6 -10 278 -190 383 -254 34 -20 62 -42 62 -47 0 -5 -2 -9 -4 -9 -2 0 -48 -16 -102 -36 -55 -19 -120 -43 -146 -51 -26 -9 -55 -24 -64 -34 -16 -17 -16 -22 0 -73 24 -76 34 -82 98 -62 29 9 62 21 73 25 11 5 40 15 65 22 25 7 50 15 55 19 6 4 30 12 55 20 25 7 49 17 55 22 5 4 18 8 30 8 12 0 25 4 31 8 5 4 27 14 49 21 22 7 49 16 60 20 11 5 33 12 49 17 16 5 34 17 40 26 14 23 -16 54 -103 110 -36 23 -165 105 -286 183 -276 178 -303 195 -313 195 -5 0 -18 -10 -30 -23z"/>
<path d="M2475 2456 c-126 -84 -516 -334 -536 -344 -40 -21 -121 -85 -133 -105 -9 -15 -7 -22 13 -38 13 -10 34 -19 47 -19 12 0 25 -4 28 -8 3 -4 28 -14 56 -22 28 -8 53 -18 56 -22 3 -4 16 -8 29 -8 13 0 26 -4 29 -8 3 -4 28 -14 56 -22 28 -8 53 -18 56 -22 3 -4 16 -8 29 -8 13 0 27 -4 30 -10 3 -5 17 -10 30 -10 13 0 26 -4 29 -9 3 -5 16 -11 28 -14 13 -3 41 -10 63 -16 46 -12 75 6 75 45 0 13 5 26 10 29 16 10 12 51 -7 67 -10 9 -38 23 -63 31 -96 33 -244 88 -248 92 -8 7 8 23 40 39 41 20 378 242 397 261 12 11 10 18 -8 43 -11 17 -21 34 -21 39 0 12 -44 53 -56 52 -5 0 -18 -6 -29 -13z"/>
<path d="M933 1267 l-188 -186 50 -51 c27 -28 58 -50 70 -50 13 0 65 44 140 120 l120 120 140 -140 c77 -77 147 -140 155 -140 8 0 79 64 157 142 l143 143 143 -143 c78 -78 149 -142 157 -142 8 0 79 64 157 142 l143 142 128 -127 c71 -70 132 -127 136 -127 12 0 106 92 106 104 0 7 -83 95 -185 196 l-186 184 -150 -149 -150 -150 -140 143 c-77 78 -148 142 -157 142 -9 0 -81 -64 -159 -142 l-143 -143 -150 150 -150 149 -187 -187z"/>
</g>
</svg>