<svg width="36" height="36" viewBox="0 0 36 36" fill="none" xmlns="http://www.w3.org/2000/svg">
<rect x="0.229492" y="0.629639" width="35" height="35" rx="8" fill="#F6F9FC"/>
<g clip-path="url(#clip0_2383_349)">
<path d="M27.9114 13.9671C27.86 12.8415 27.6812 12.0728 27.4198 11.4003C27.1544 10.6947 26.7381 10.0556 26.2001 9.52732C25.672 8.98937 25.0327 8.57292 24.3271 8.30733C23.6545 8.0461 22.8859 7.86749 21.7603 7.81634C20.6326 7.7647 20.2723 7.75244 17.4006 7.75244C14.5288 7.75244 14.1685 7.7647 13.0408 7.81601C11.9152 7.86749 11.1467 8.04626 10.474 8.30766C9.76844 8.57308 9.12932 8.98937 8.60105 9.52732C8.0631 10.0554 7.64665 10.6945 7.38106 11.4001C7.11983 12.0728 6.94122 12.8415 6.89007 13.9669C6.83843 15.0948 6.82617 15.4549 6.82617 18.3267C6.82617 21.1986 6.83843 21.5589 6.89007 22.6866C6.94138 23.812 7.12016 24.5807 7.38155 25.2534C7.64697 25.9588 8.06326 26.5981 8.60121 27.1262C9.12932 27.6642 9.7686 28.0805 10.4742 28.3459C11.1467 28.6074 11.9154 28.7861 13.041 28.8375C14.1689 28.889 14.529 28.9011 17.4007 28.9011C20.2725 28.9011 20.6328 28.889 21.7605 28.8375C22.8861 28.7861 23.6546 28.6074 24.3273 28.3459C25.7477 27.7966 26.8705 26.6738 27.4198 25.2534C27.6813 24.5807 27.86 23.812 27.9114 22.6866C27.9627 21.5588 27.975 21.1986 27.975 18.3269C27.975 15.4549 27.9627 15.0948 27.9114 13.9671ZM26.0079 22.6C25.961 23.631 25.7887 24.1909 25.6439 24.5635C25.2882 25.4858 24.5593 26.2146 23.637 26.5704C23.2645 26.7151 22.7046 26.8874 21.6735 26.9344C20.5587 26.9854 20.2243 26.996 17.4006 26.996C14.5768 26.996 14.2424 26.9854 13.1275 26.9344C12.0966 26.8874 11.5367 26.7151 11.164 26.5704C10.7048 26.4008 10.2893 26.1305 9.94819 25.7793C9.59692 25.4382 9.32666 25.0228 9.15707 24.5635C9.01234 24.1909 8.84002 23.631 8.79306 22.6C8.74224 21.485 8.73143 21.1505 8.73143 18.327C8.73143 15.5033 8.74224 15.169 8.79306 14.0539C8.84018 13.0229 9.01234 12.463 9.15707 12.0904C9.32666 11.631 9.59708 11.2156 9.94819 10.8745C10.2893 10.5232 10.7048 10.2529 11.1641 10.0835C11.5367 9.93861 12.0966 9.76645 13.1276 9.71933C14.2426 9.66851 14.5771 9.65769 17.4006 9.65769H17.4004C20.2239 9.65769 20.5584 9.66851 21.6735 9.71949C22.7046 9.76645 23.2643 9.93877 23.637 10.0835C24.0962 10.2531 24.5117 10.5234 24.8528 10.8745C25.2041 11.2156 25.4744 11.631 25.6438 12.0904C25.7887 12.463 25.961 13.0229 26.0079 14.0539C26.0588 15.1689 26.0696 15.5033 26.0696 18.3269C26.0696 21.1505 26.0589 21.4849 26.0079 22.6Z" fill="url(#paint0_linear_2383_349)"/>
<path d="M17.4007 12.8967C14.4018 12.8967 11.9707 15.328 11.9707 18.3269C11.9707 21.3258 14.4018 23.7569 17.4007 23.7569C20.3998 23.7569 22.8309 21.3258 22.8309 18.3269C22.8309 15.328 20.3998 12.8967 17.4007 12.8967ZM17.4007 21.8516C15.4541 21.8515 13.876 20.2735 13.8761 18.3267C13.8761 16.3802 15.4541 14.802 17.4009 14.802C19.3476 14.8021 20.9256 16.3802 20.9256 18.3267C20.9256 20.2735 19.3474 21.8516 17.4007 21.8516Z" fill="url(#paint1_linear_2383_349)"/>
<path d="M24.3133 12.6824C24.3133 13.3831 23.7452 13.9512 23.0444 13.9512C22.3435 13.9512 21.7754 13.3831 21.7754 12.6824C21.7754 11.9815 22.3435 11.4133 23.0444 11.4133C23.7452 11.4133 24.3133 11.9815 24.3133 12.6824Z" fill="url(#paint2_linear_2383_349)"/>
</g>
<defs>
<linearGradient id="paint0_linear_2383_349" x1="8.60094" y1="27.1263" x2="26.2002" y2="9.52704" gradientUnits="userSpaceOnUse">
<stop stop-color="#FFD600"/>
<stop offset="0.5" stop-color="#FF0100"/>
<stop offset="1" stop-color="#D800B9"/>
</linearGradient>
<linearGradient id="paint1_linear_2383_349" x1="13.5612" y1="22.1665" x2="21.2404" y2="14.4872" gradientUnits="userSpaceOnUse">
<stop stop-color="#FF6400"/>
<stop offset="0.5" stop-color="#FF0100"/>
<stop offset="1" stop-color="#FD0056"/>
</linearGradient>
<linearGradient id="paint2_linear_2383_349" x1="22.1471" y1="13.5795" x2="23.9416" y2="11.785" gradientUnits="userSpaceOnUse">
<stop stop-color="#F30072"/>
<stop offset="1" stop-color="#E50097"/>
</linearGradient>
<clipPath id="clip0_2383_349">
<rect width="21.1488" height="21.1488" fill="white" transform="translate(6.82617 7.75244)"/>
</clipPath>
</defs>
</svg>
